<svg width="180" height="38" viewBox="0 0 180 38" fill="none" xmlns="http://www.w3.org/2000/svg">
<path d="M41.04 13.2228H0V6.78701C0 3.29325 3.01211 0.351135 6.58898 0.351135H34.4511C38.0279 0.351135 41.04 3.29325 41.04 6.78701V13.2228Z" fill="#34A853"/>
<path d="M41.04 19.1613H0V12.3213C0 8.60823 3.01211 5.48132 6.58898 5.48132H34.4511C38.0279 5.48132 41.04 8.60823 41.04 12.3213V19.1613Z" fill="#FBBC04"/>
<path d="M41.04 24.8615H0V18.0215C0 14.3084 3.01211 11.1815 6.58898 11.1815H34.4511C38.0279 11.1815 41.04 14.3084 41.04 18.0215V24.8615Z" fill="#EA4335"/>
<path d="M0 14.8759L26.0482 20.7601C29.0467 21.4956 32.4198 20.7601 34.8559 18.9213L41.04 14.5081V28.2992C41.04 31.7929 38.0417 34.5512 34.4812 34.5512H6.55888C2.99832 34.5512 0 31.7929 0 28.2992V14.8759Z" fill="url(#paint0_linear_377_337)"/>
<path d="M54.9422 10.6111L58.9436 0H60.7961L64.8123 10.6111H63.0191L62.041 7.88424H57.7135L56.7354 10.6111H54.9422ZM59.4327 3.12702L58.2619 6.3726H61.4926L60.3219 3.12702L59.9217 1.91178H59.8328L59.4327 3.12702ZM68.9862 10.8482C68.3045 10.8482 67.6871 10.6803 67.1337 10.3444C66.5904 9.9986 66.1556 9.52436 65.8295 8.92164C65.5134 8.30912 65.3553 7.61258 65.3553 6.83202C65.3553 6.05146 65.5134 5.35994 65.8295 4.75722C66.1556 4.1545 66.5904 3.68026 67.1337 3.3345C67.6871 2.98874 68.3045 2.8158 68.9862 2.8158C69.5692 2.8158 70.0681 2.94428 70.483 3.20112C70.9079 3.45796 71.2191 3.74946 71.4167 4.0755H71.5056L71.4167 3.02328V0H73.0024V10.6111H71.5056V9.60336H71.4167C71.2191 9.9294 70.9079 10.2209 70.483 10.4777C70.0681 10.7248 69.5692 10.8482 68.9862 10.8482ZM69.2233 9.38106C69.6186 9.38106 69.9891 9.27733 70.3348 9.06985C70.6905 8.86237 70.9721 8.57087 71.1796 8.19547C71.397 7.81014 71.5056 7.35563 71.5056 6.83202C71.5056 6.30842 71.397 5.85881 71.1796 5.4834C70.9721 5.09808 70.6905 4.80168 70.3348 4.5942C69.9891 4.38672 69.6186 4.28298 69.2233 4.28298C68.8282 4.28298 68.4577 4.38672 68.1118 4.5942C67.7661 4.80168 67.4845 5.09808 67.2671 5.4834C67.0498 5.85881 66.941 6.30842 66.941 6.83202C66.941 7.35563 67.0498 7.81014 67.2671 8.19547C67.4845 8.57087 67.7661 8.86237 68.1118 9.06985C68.4577 9.27733 68.8282 9.38106 69.2233 9.38106ZM78.0461 10.8482C77.3644 10.8482 76.7469 10.6803 76.1936 10.3444C75.6502 9.9986 75.2155 9.52436 74.8895 8.92164C74.5734 8.30912 74.4152 7.61258 74.4152 6.83202C74.4152 6.05146 74.5734 5.35994 74.8895 4.75722C75.2155 4.1545 75.6502 3.68026 76.1936 3.3345C76.7469 2.98874 77.3644 2.8158 78.0461 2.8158C78.629 2.8158 79.128 2.94428 79.543 3.20112C79.9678 3.45796 80.2791 3.74946 80.4766 4.0755H80.5655L80.4766 3.02328V0H82.0624V10.6111H80.5655V9.60336H80.4766C80.2791 9.9294 79.9678 10.2209 79.543 10.4777C79.128 10.7248 78.629 10.8482 78.0461 10.8482ZM78.2833 9.38106C78.6785 9.38106 79.049 9.27733 79.3948 9.06985C79.7504 8.86237 80.032 8.57087 80.2395 8.19547C80.4569 7.81014 80.5655 7.35563 80.5655 6.83202C80.5655 6.30842 80.4569 5.85881 80.2395 5.4834C80.032 5.09808 79.7504 4.80168 79.3948 4.5942C79.049 4.38672 78.6785 4.28298 78.2833 4.28298C77.888 4.28298 77.5175 4.38672 77.1718 4.5942C76.826 4.80168 76.5444 5.09808 76.327 5.4834C76.1096 5.85881 76.001 6.30842 76.001 6.83202C76.001 7.35563 76.1096 7.81014 76.327 8.19547C76.5444 8.57087 76.826 8.86237 77.1718 9.06985C77.5175 9.27733 77.888 9.38106 78.2833 9.38106ZM88.2068 8.41776V4.446H86.8879V3.05292H88.2068V0.91884H89.8074V3.05292H91.6605V4.446H89.8074V8.07691C89.8074 8.45231 89.8815 8.7389 90.0297 8.93647C90.1876 9.13403 90.4498 9.23287 90.8157 9.23287C91.0027 9.23287 91.1612 9.20813 91.29 9.15876C91.4279 9.1094 91.5659 9.04021 91.7049 8.95129V10.5074C91.5362 10.5766 91.3584 10.6308 91.1714 10.6704C90.9833 10.71 90.761 10.7297 90.5045 10.7297C89.8025 10.7297 89.2443 10.5271 88.8293 10.1221C88.4143 9.7071 88.2068 9.13904 88.2068 8.41776ZM96.4633 10.8482C95.6824 10.8482 94.9961 10.6704 94.4033 10.3147C93.8105 9.95905 93.3454 9.4799 93.0102 8.87719C92.6739 8.27447 92.5064 7.59275 92.5064 6.83202C92.5064 6.0811 92.6739 5.4044 93.0102 4.80168C93.3454 4.18916 93.8105 3.705 94.4033 3.34932C94.9961 2.99364 95.6824 2.8158 96.4633 2.8158C97.2339 2.8158 97.9157 2.99364 98.5085 3.34932C99.1013 3.705 99.5653 4.18916 99.9016 4.80168C100.237 5.4044 100.405 6.0811 100.405 6.83202C100.405 7.59275 100.237 8.27447 99.9016 8.87719C99.5653 9.4799 99.1013 9.95905 98.5085 10.3147C97.9157 10.6704 97.2339 10.8482 96.4633 10.8482ZM96.4633 9.38106C96.8783 9.38106 97.2636 9.28223 97.6193 9.08466C97.9749 8.87718 98.2611 8.58569 98.4788 8.21028C98.7057 7.82496 98.8197 7.36554 98.8197 6.83202C98.8197 6.2985 98.7057 5.84399 98.4788 5.46858C98.2611 5.08326 97.9749 4.79176 97.6193 4.5942C97.2636 4.38672 96.8783 4.28298 96.4633 4.28298C96.0483 4.28298 95.6573 4.38672 95.2925 4.5942C94.9368 4.79176 94.645 5.08326 94.4181 5.46858C94.2004 5.84399 94.0921 6.2985 94.0921 6.83202C94.0921 7.36554 94.2004 7.82496 94.4181 8.21028C94.645 8.58569 94.9368 8.87718 95.2925 9.08466C95.6573 9.28223 96.0483 9.38106 96.4633 9.38106Z" fill="white"/>
<path d="M62.8601 33.7215C61.8652 33.7215 60.9286 33.5406 60.05 33.1788C59.1844 32.8171 58.4156 32.3132 57.7438 31.6672C57.072 31.0083 56.5422 30.2396 56.1546 29.361C55.7799 28.4695 55.5926 27.507 55.5926 26.4733C55.5926 25.4397 55.7799 24.4837 56.1546 23.6051C56.5422 22.7136 57.0655 21.9449 57.7244 21.2989C58.3962 20.64 59.1714 20.1296 60.05 19.7679C60.9286 19.4061 61.8652 19.2252 62.8601 19.2252C63.9195 19.2252 64.895 19.4125 65.7865 19.7872C66.6908 20.162 67.4467 20.6852 68.0539 21.357L66.5811 22.8105C66.1288 22.3066 65.5862 21.919 64.9531 21.6477C64.333 21.3764 63.6353 21.2407 62.8601 21.2407C61.9427 21.2407 61.0965 21.4604 60.3213 21.8997C59.5461 22.326 58.9195 22.9333 58.4415 23.7214C57.9763 24.4966 57.7438 25.4139 57.7438 26.4733C57.7438 27.5327 57.9828 28.4566 58.4608 29.2447C58.9388 30.0199 59.5655 30.6272 60.3407 31.0664C61.1159 31.4928 61.9621 31.7059 62.8795 31.7059C63.7193 31.7059 64.4815 31.5509 65.1663 31.2408C65.8511 30.9179 66.4001 30.4656 66.8136 29.8842C67.24 29.3028 67.4984 28.6051 67.5888 27.7912H62.8407V25.9113H69.585C69.6625 26.2602 69.7012 26.6284 69.7012 27.016V27.0354C69.7012 28.3791 69.404 29.5548 68.8098 30.5625C68.2284 31.5574 67.4209 32.3326 66.3873 32.8881C65.3536 33.4437 64.1779 33.7215 62.8601 33.7215ZM75.9415 33.7215C74.9207 33.7215 74.0229 33.4889 73.2477 33.0238C72.4725 32.5587 71.8652 31.932 71.4259 31.1439C70.9866 30.3558 70.767 29.4644 70.767 28.4695C70.767 27.4876 70.9866 26.6025 71.4259 25.8144C71.8652 25.0133 72.4725 24.3803 73.2477 23.9152C74.0229 23.4501 74.9207 23.2175 75.9415 23.2175C76.9493 23.2175 77.8407 23.4501 78.6159 23.9152C79.3911 24.3803 79.9983 25.0133 80.4377 25.8144C80.8769 26.6025 81.0966 27.4876 81.0966 28.4695C81.0966 29.4644 80.8769 30.3558 80.4377 31.1439C79.9983 31.932 79.3911 32.5587 78.6159 33.0238C77.8407 33.4889 76.9493 33.7215 75.9415 33.7215ZM75.9415 31.8028C76.4841 31.8028 76.988 31.6737 77.4531 31.4152C77.9183 31.1439 78.2929 30.7628 78.5772 30.2718C78.8743 29.7679 79.0229 29.1672 79.0229 28.4695C79.0229 27.7718 78.8743 27.1775 78.5772 26.6865C78.2929 26.1826 77.9183 25.8015 77.4531 25.5431C76.988 25.2718 76.4841 25.1361 75.9415 25.1361C75.3988 25.1361 74.8885 25.2718 74.4105 25.5431C73.9453 25.8015 73.5641 26.1826 73.267 26.6865C72.9827 27.1775 72.8407 27.7718 72.8407 28.4695C72.8407 29.1672 72.9827 29.7679 73.267 30.2718C73.5641 30.7628 73.9453 31.1439 74.4105 31.4152C74.8885 31.6737 75.3988 31.8028 75.9415 31.8028ZM87.6754 33.7215C86.6548 33.7215 85.7568 33.4889 84.9816 33.0238C84.2064 32.5587 83.5992 31.932 83.1599 31.1439C82.7206 30.3558 82.5009 29.4644 82.5009 28.4695C82.5009 27.4876 82.7206 26.6025 83.1599 25.8144C83.5992 25.0133 84.2064 24.3803 84.9816 23.9152C85.7568 23.4501 86.6548 23.2175 87.6754 23.2175C88.6832 23.2175 89.5746 23.4501 90.3501 23.9152C91.1253 24.3803 91.7329 25.0133 92.1718 25.8144C92.6107 26.6025 92.8307 27.4876 92.8307 28.4695C92.8307 29.4644 92.6107 30.3558 92.1718 31.1439C91.7329 31.932 91.1253 32.5587 90.3501 33.0238C89.5746 33.4889 88.6832 33.7215 87.6754 33.7215ZM87.6754 31.8028C88.218 31.8028 88.7219 31.6737 89.1871 31.4152C89.6522 31.1439 90.0269 30.7628 90.3113 30.2718C90.6089 29.7679 90.7571 29.1672 90.7571 28.4695C90.7571 27.7718 90.6089 27.1775 90.3113 26.6865C90.0269 26.1826 89.6522 25.8015 89.1871 25.5431C88.7219 25.2718 88.218 25.1361 87.6754 25.1361C87.1328 25.1361 86.6225 25.2718 86.1444 25.5431C85.6793 25.8015 85.2982 26.1826 85.001 26.6865C84.7168 27.1775 84.5746 27.7718 84.5746 28.4695C84.5746 29.1672 84.7168 29.7679 85.001 30.2718C85.2982 30.7628 85.6793 31.1439 86.1444 31.4152C86.6225 31.6737 87.1328 31.8028 87.6754 31.8028ZM99.2159 37.9076C98.3495 37.9076 97.6005 37.7654 96.9678 37.4812C96.3476 37.2099 95.8437 36.8545 95.4561 36.4153C95.0685 35.9889 94.7904 35.5497 94.6228 35.0974L96.5608 34.2835C96.7671 34.8003 97.0966 35.2202 97.5492 35.5432C98.0143 35.8791 98.5695 36.0471 99.2159 36.0471C100.12 36.0471 100.83 35.7757 101.348 35.2331C101.877 34.6905 102.142 33.9218 102.142 32.9269V31.9773H102.026C101.716 32.4424 101.283 32.8171 100.728 33.1013C100.185 33.3726 99.5647 33.5083 98.867 33.5083C98.0268 33.5083 97.2585 33.2951 96.5608 32.8687C95.8631 32.4424 95.3011 31.8481 94.8747 31.0858C94.4484 30.3106 94.2352 29.4062 94.2352 28.3726C94.2352 27.3261 94.4484 26.4217 94.8747 25.6594C95.3011 24.8842 95.8631 24.2834 96.5608 23.857C97.2585 23.4307 98.0268 23.2175 98.867 23.2175C99.5647 23.2175 100.185 23.3597 100.728 23.6439C101.283 23.9281 101.716 24.3028 102.026 24.7679H102.142V23.5276H104.138V32.8881C104.138 33.9605 103.925 34.8714 103.499 35.6207C103.085 36.37 102.51 36.9385 101.774 37.3261C101.038 37.7137 100.185 37.9076 99.2159 37.9076ZM99.2352 31.609C99.7517 31.609 100.229 31.4863 100.669 31.2408C101.108 30.9824 101.464 30.6142 101.735 30.1362C102.007 29.6452 102.142 29.0574 102.142 28.3726C102.142 27.662 102.007 27.0676 101.735 26.5896C101.464 26.0986 101.108 25.7304 100.669 25.485C100.229 25.2395 99.7517 25.1167 99.2352 25.1167C98.7177 25.1167 98.2332 25.2459 97.7817 25.5043C97.3417 25.7498 96.9872 26.1116 96.7158 26.5896C96.4445 27.0676 96.3089 27.662 96.3089 28.3726C96.3089 29.0703 96.4445 29.6645 96.7158 30.1555C96.9872 30.6336 97.3417 30.9954 97.7817 31.2408C98.2332 31.4863 98.7177 31.609 99.2352 31.609ZM106.606 33.4114V19.5353H108.7V33.4114H106.606ZM115.587 33.7215C114.618 33.7215 113.753 33.4954 112.99 33.0432C112.229 32.5909 111.628 31.9708 111.188 31.1827C110.762 30.3946 110.549 29.4966 110.549 28.4889C110.549 27.5457 110.756 26.6736 111.169 25.8726C111.583 25.0715 112.157 24.4319 112.894 23.9539C113.644 23.4629 114.502 23.2175 115.471 23.2175C116.493 23.2175 117.358 23.4372 118.068 23.8764C118.792 24.3157 119.341 24.9164 119.715 25.6788C120.09 26.4411 120.277 27.3002 120.277 28.2563C120.277 28.3985 120.272 28.5276 120.258 28.6439C120.258 28.7602 120.252 28.8506 120.239 28.9152H112.603C112.707 29.8971 113.049 30.6335 113.63 31.1245C114.225 31.6155 114.897 31.861 115.646 31.861C116.318 31.861 116.873 31.7124 117.312 31.4152C117.752 31.1052 118.101 30.7241 118.359 30.2718L120.084 31.1052C119.657 31.8804 119.076 32.5134 118.339 33.0044C117.603 33.4824 116.686 33.7215 115.587 33.7215ZM115.491 25.0005C114.793 25.0005 114.199 25.2136 113.708 25.64C113.217 26.0664 112.888 26.6349 112.719 27.3454H118.204C118.179 27.0095 118.068 26.6606 117.874 26.2989C117.68 25.9372 117.384 25.6335 116.983 25.3881C116.595 25.1296 116.098 25.0005 115.491 25.0005ZM128.797 33.4114L125.076 19.5353H127.44L129.649 28.547L129.882 29.7486H129.998L130.289 28.547L133.08 19.5353H135.211L137.886 28.547L138.177 29.7292H138.293L138.525 28.547L140.735 19.5353H143.08L139.417 33.4114H137.169L134.514 24.2059L134.204 22.9074H134.087L133.758 24.2059L130.987 33.4114H128.797ZM146.972 33.7215C146.261 33.7215 145.628 33.5858 145.072 33.3145C144.517 33.0303 144.084 32.6362 143.774 32.1323C143.464 31.6284 143.309 31.0535 143.309 30.4075C143.309 29.7098 143.49 29.1155 143.851 28.6245C144.227 28.1206 144.724 27.7395 145.344 27.4811C145.964 27.2227 146.649 27.0935 147.398 27.0935C148.018 27.0935 148.561 27.1516 149.026 27.2679C149.504 27.3842 149.866 27.507 150.111 27.6361V27.1129C150.111 26.4668 149.879 25.9501 149.414 25.5625C148.948 25.1749 148.348 24.9811 147.611 24.9811C147.107 24.9811 146.63 25.0974 146.177 25.3299C145.724 25.5496 145.363 25.8532 145.092 26.2408L143.658 25.1361C144.084 24.5418 144.646 24.0767 145.344 23.7408C146.054 23.3919 146.829 23.2175 147.669 23.2175C149.103 23.2175 150.208 23.5728 150.983 24.2834C151.758 24.9811 152.146 25.963 152.146 27.2292V33.4114H150.111V32.1904H149.995C149.736 32.5909 149.349 32.9463 148.832 33.2563C148.316 33.5664 147.696 33.7215 146.972 33.7215ZM147.34 32.016C147.882 32.016 148.36 31.8869 148.774 31.6284C149.188 31.37 149.51 31.0341 149.743 30.6207C149.988 30.1943 150.111 29.7357 150.111 29.2447C149.814 29.0768 149.465 28.9411 149.065 28.8377C148.665 28.7214 148.238 28.6633 147.786 28.6633C146.933 28.6633 146.325 28.8377 145.964 29.1865C145.602 29.5225 145.421 29.9359 145.421 30.4269C145.421 30.892 145.596 31.2731 145.944 31.5703C146.293 31.8675 146.758 32.016 147.34 32.016ZM154.469 33.4114V19.5353H156.562V33.4114H154.469ZM159.05 33.4114V19.5353H161.143V33.4114H159.05ZM168.031 33.7215C167.062 33.7215 166.197 33.4954 165.434 33.0432C164.672 32.5909 164.072 31.9708 163.632 31.1827C163.205 30.3946 162.992 29.4966 162.992 28.4889C162.992 27.5457 163.2 26.6736 163.612 25.8726C164.026 25.0715 164.601 24.4319 165.337 23.9539C166.087 23.4629 166.946 23.2175 167.915 23.2175C168.936 23.2175 169.801 23.4372 170.512 23.8764C171.235 24.3157 171.785 24.9164 172.159 25.6788C172.534 26.4411 172.721 27.3002 172.721 28.2563C172.721 28.3985 172.715 28.5276 172.701 28.6439C172.701 28.7602 172.696 28.8506 172.682 28.9152H165.046C165.15 29.8971 165.492 30.6335 166.073 31.1245C166.669 31.6155 167.34 31.861 168.089 31.861C168.762 31.861 169.317 31.7124 169.756 31.4152C170.196 31.1052 170.545 30.7241 170.802 30.2718L172.527 31.1052C172.101 31.8804 171.519 32.5134 170.783 33.0044C170.046 33.4824 169.13 33.7215 168.031 33.7215ZM167.934 25.0005C167.236 25.0005 166.642 25.2136 166.151 25.64C165.661 26.0664 165.331 26.6349 165.163 27.3454H170.647C170.622 27.0095 170.512 26.6606 170.318 26.2989C170.124 25.9372 169.828 25.6335 169.426 25.3881C169.039 25.1296 168.542 25.0005 167.934 25.0005ZM175.426 30.5431V25.3493H173.701V23.5276H175.426V20.7369H177.519V23.5276H179.942V25.3493H177.519V30.0974C177.519 30.5884 177.616 30.963 177.81 31.2214C178.016 31.4799 178.358 31.609 178.837 31.609C179.082 31.609 179.288 31.5768 179.457 31.5121C179.637 31.4475 179.818 31.3571 180 31.2408V33.2757C179.78 33.3661 179.547 33.4373 179.302 33.4889C179.056 33.5406 178.765 33.5664 178.43 33.5664C177.512 33.5664 176.783 33.3016 176.24 32.7718C175.697 32.2292 175.426 31.4863 175.426 30.5431Z" fill="white"/>
<defs>
<linearGradient id="paint0_linear_377_337" x1="18.5641" y1="24.9123" x2="-2.52818" y2="49.6252" gradientUnits="userSpaceOnUse">
<stop stop-color="#4285F4"/>
<stop offset="1" stop-color="#1B74E8"/>
</linearGradient>
</defs>
</svg>
