<svg width="235" height="93" viewBox="0 0 235 93" fill="none" xmlns="http://www.w3.org/2000/svg">
<g clip-path="url(#clip0_451_11016)">
<path d="M6.7041 68.5302L36.9594 83.8523L66.0658 68.5302V8.61377H6.7041V68.5302Z" fill="white"/>
<path d="M66.6781 8.84229L6.09082 69.5972L37.4951 85.0718L66.6781 70.207V8.84229Z" fill="#F2F3F2"/>
<path d="M4.71289 28.5864V69.8266L5.78523 70.3602L36.0406 85.6823L36.9597 86.1397L37.8788 85.6823L67.0618 70.3602L68.1342 69.8266V6.63232H4.71289V28.5864ZM6.70438 68.6831V8.61429H66.1427V68.6831L36.9597 84.0053L6.70438 68.6831Z" fill="#DCDEDC"/>
<path d="M36.4235 9.60528C36.7299 9.60528 37.0363 9.60528 37.3427 9.6815L36.4235 11.4348C35.0448 11.3586 33.8193 12.4258 33.7427 13.7979C33.6661 15.17 34.7384 16.3897 36.1171 16.4659H36.4235C37.0363 16.4659 37.649 16.2372 38.1086 15.8561L39.1044 17.5331C38.3384 18.0668 37.4193 18.3717 36.4235 18.3717C33.9724 18.4479 31.9044 16.6184 31.8278 14.179C31.7512 11.7397 33.5895 9.68151 36.0405 9.60528H36.4235ZM39.5639 13.3405L40.7129 15.2463L39.5639 17.0758L38.4916 15.2463H36.2703L37.4193 13.3405H39.5639ZM37.7256 12.6545C37.7256 12.3495 37.8022 12.0446 37.9554 11.8159C38.1086 11.5872 38.415 11.3586 38.6448 11.2061L38.798 11.1299C39.1044 10.9774 39.181 10.9012 39.181 10.7487C39.181 10.5963 38.9512 10.4438 38.798 10.4438C38.4916 10.4438 38.2618 10.5963 38.1086 10.9012L37.7256 10.52C37.8022 10.3676 37.9554 10.2151 38.1086 10.0627C38.3384 9.91019 38.5682 9.91019 38.798 9.91019C39.0278 9.91019 39.3341 9.98642 39.4873 10.1389C39.6405 10.2913 39.7937 10.52 39.7937 10.7487C39.7937 11.1299 39.5639 11.4348 39.1044 11.5872L38.8746 11.7397C38.6448 11.8922 38.4916 11.9684 38.415 12.1971H39.7937V12.7307L37.7256 12.6545ZM36.4235 22.1831L43.7001 18.0668V6.63232H29.0703V17.9905L36.4235 22.1831Z" fill="#FF492C"/>
<path d="M69.5886 49.168H3.25673L0.805664 54.504L3.25673 59.8401H69.5886L71.9631 54.504L69.5886 49.168Z" fill="#FFD200"/>
<path d="M17.3821 45.8293C16.7948 45.8293 16.2765 45.715 15.8272 45.4863C15.3778 45.2576 15.0306 44.9349 14.7855 44.5182C14.5353 44.1014 14.4102 43.6237 14.4102 43.0851V37.871C14.4102 37.8354 14.4229 37.8023 14.4485 37.7719C14.474 37.7464 14.5072 37.7337 14.548 37.7337H15.8885C15.9293 37.7337 15.9625 37.7464 15.988 37.7719C16.0187 37.8023 16.034 37.8354 16.034 37.871V43.1003C16.034 43.5018 16.1565 43.827 16.4016 44.076C16.6519 44.3251 16.9787 44.4496 17.3821 44.4496C17.7906 44.4496 18.1199 44.3251 18.3702 44.076C18.6204 43.827 18.7455 43.5018 18.7455 43.1003V37.871C18.7455 37.8354 18.7582 37.8023 18.7838 37.7719C18.8093 37.7464 18.8399 37.7337 18.8757 37.7337H20.2238C20.2595 37.7337 20.2927 37.7464 20.3233 37.7719C20.3489 37.8023 20.3616 37.8354 20.3616 37.871V43.0851C20.3616 43.6237 20.2365 44.1014 19.9863 44.5182C19.7361 44.9349 19.3889 45.2576 18.9446 45.4863C18.4953 45.715 17.9744 45.8293 17.3821 45.8293ZM23.9463 45.8141C23.4357 45.8141 22.9889 45.7429 22.6059 45.6006C22.2229 45.4583 21.9242 45.2576 21.7097 44.9984C21.5004 44.7392 21.3957 44.4445 21.3957 44.1142V43.9998C21.3957 43.9642 21.4085 43.9312 21.434 43.9007C21.4646 43.8753 21.4978 43.8626 21.5336 43.8626H22.8051C22.8459 43.8626 22.8791 43.8753 22.9046 43.9007C22.9302 43.9312 22.9429 43.9642 22.9429 43.9998V44.0074C22.9429 44.1802 23.0374 44.3251 23.2263 44.4419C23.4153 44.5588 23.6527 44.6173 23.9387 44.6173C24.1991 44.6173 24.4085 44.5664 24.5668 44.4648C24.725 44.3581 24.8042 44.231 24.8042 44.0837C24.8042 43.9464 24.7353 43.8423 24.5974 43.7711C24.4646 43.7051 24.2399 43.6339 23.9233 43.5577C23.5608 43.4662 23.2774 43.3773 23.0731 43.2909C22.5829 43.1232 22.1923 42.9173 21.9012 42.6734C21.6102 42.4295 21.4646 42.0788 21.4646 41.6214C21.4646 41.0573 21.6842 40.6101 22.1233 40.2798C22.5676 39.9495 23.1523 39.7843 23.8774 39.7843C24.3676 39.7843 24.7965 39.8605 25.1642 40.013C25.5319 40.1705 25.8178 40.3916 26.0221 40.6762C26.2212 40.9557 26.3208 41.2759 26.3208 41.6367C26.3208 41.6723 26.308 41.7028 26.2825 41.7282C26.257 41.7536 26.2238 41.7663 26.1829 41.7663H24.9574C24.9216 41.7663 24.8885 41.7536 24.8578 41.7282C24.8323 41.7028 24.8195 41.6723 24.8195 41.6367C24.8195 41.469 24.7327 41.3267 24.5591 41.2098C24.3906 41.0929 24.1633 41.0345 23.8774 41.0345C23.6272 41.0345 23.4204 41.0828 23.257 41.1793C23.0936 41.2708 23.0119 41.3953 23.0119 41.5528C23.0119 41.7053 23.091 41.8196 23.2493 41.8959C23.4076 41.9721 23.6706 42.0534 24.0382 42.1398C24.1199 42.1601 24.217 42.183 24.3293 42.2084C24.4365 42.2338 24.5489 42.2669 24.6663 42.3075C25.2127 42.4701 25.6416 42.676 25.9531 42.925C26.2697 43.1791 26.428 43.545 26.428 44.0227C26.428 44.5868 26.2033 45.0264 25.754 45.3414C25.3097 45.6565 24.7072 45.8141 23.9463 45.8141ZM29.714 39.7691C30.2144 39.7691 30.6587 39.8555 31.0468 40.0282C31.4348 40.201 31.7387 40.4348 31.9582 40.7296C32.1778 41.0294 32.2876 41.3623 32.2876 41.7282V45.6006C32.2876 45.6413 32.2748 45.6743 32.2493 45.6997C32.2187 45.7251 32.1855 45.7378 32.1497 45.7378H30.8016C30.7659 45.7378 30.7353 45.7251 30.7097 45.6997C30.6791 45.6743 30.6638 45.6413 30.6638 45.6006V45.2271C30.6638 45.2017 30.6587 45.1864 30.6485 45.1814C30.628 45.1712 30.6127 45.1788 30.6025 45.2042C30.2757 45.621 29.7574 45.8293 29.0476 45.8293C28.4502 45.8293 27.9676 45.6845 27.5999 45.3948C27.2323 45.1051 27.0485 44.6782 27.0485 44.1142C27.0485 43.5297 27.2553 43.0749 27.6689 42.7496C28.0825 42.4244 28.6723 42.2618 29.4382 42.2618H30.6102C30.6459 42.2618 30.6638 42.244 30.6638 42.2084V41.9569C30.6638 41.7028 30.5897 41.5046 30.4416 41.3623C30.2833 41.2251 30.051 41.1564 29.7446 41.1564C29.5097 41.1564 29.3131 41.1971 29.1548 41.2784C29.0016 41.3648 28.9021 41.4842 28.8561 41.6367C28.8306 41.718 28.7795 41.7561 28.7029 41.751L27.3089 41.5681C27.217 41.5528 27.1761 41.5173 27.1863 41.4614C27.217 41.1412 27.3446 40.8515 27.5693 40.5923C27.794 40.3332 28.0927 40.1324 28.4655 39.9901C28.8382 39.8428 29.2544 39.7691 29.714 39.7691ZM29.4842 44.6325C29.811 44.6325 30.0893 44.5436 30.3191 44.3657C30.5489 44.1878 30.6638 43.9617 30.6638 43.6873V43.2756C30.6638 43.2401 30.6459 43.2223 30.6102 43.2223H29.7829C29.4357 43.2223 29.165 43.2883 28.971 43.4205C28.777 43.5475 28.6799 43.7305 28.6799 43.9693C28.6799 44.1726 28.7514 44.3327 28.8944 44.4496C29.0425 44.5715 29.2391 44.6325 29.4842 44.6325ZM38.6527 41.3546C38.7957 41.7561 38.8672 42.2313 38.8672 42.7801C38.8672 43.3036 38.8033 43.7635 38.6757 44.1599C38.497 44.6783 38.2161 45.0873 37.8331 45.3872C37.4451 45.6819 36.988 45.8293 36.4621 45.8293C35.9004 45.8293 35.4587 45.621 35.137 45.2042C35.1216 45.189 35.1063 45.1814 35.091 45.1814C35.0757 45.1864 35.068 45.2017 35.068 45.2271V45.6006C35.068 45.6413 35.0553 45.6743 35.0297 45.6997C34.9991 45.7251 34.9659 45.7378 34.9302 45.7378H33.5821C33.5463 45.7378 33.5157 45.7251 33.4902 45.6997C33.4595 45.6743 33.4442 45.6413 33.4442 45.6006V37.871C33.4442 37.8354 33.4595 37.8023 33.4902 37.7719C33.5157 37.7464 33.5463 37.7337 33.5821 37.7337H34.9302C34.9659 37.7337 34.9991 37.7464 35.0297 37.7719C35.0553 37.8023 35.068 37.8354 35.068 37.871V40.3179C35.068 40.3433 35.0757 40.3586 35.091 40.3637C35.1063 40.3687 35.1216 40.3611 35.137 40.3408C35.4331 39.9596 35.857 39.7691 36.4085 39.7691C36.9702 39.7691 37.4399 39.9114 37.8178 40.196C38.1957 40.4805 38.474 40.8668 38.6527 41.3546ZM36.9523 43.9541C37.1106 43.6644 37.1897 43.2833 37.1897 42.8106C37.1897 42.2821 37.0978 41.8781 36.914 41.5986C36.7302 41.3038 36.4595 41.1564 36.1021 41.1564C35.765 41.1564 35.5072 41.3038 35.3285 41.5986C35.1599 41.8883 35.0757 42.2897 35.0757 42.803C35.0757 43.3112 35.1523 43.6949 35.3055 43.9541C35.4893 44.2844 35.7574 44.4496 36.1097 44.4496C36.4876 44.4496 36.7685 44.2844 36.9523 43.9541ZM40.805 39.1973C40.5395 39.1973 40.3225 39.111 40.154 38.9382C39.9804 38.7705 39.8936 38.557 39.8936 38.2978C39.8936 38.0285 39.9778 37.81 40.1463 37.6423C40.3148 37.4746 40.5344 37.3907 40.805 37.3907C41.0706 37.3907 41.2876 37.4746 41.4561 37.6423C41.6246 37.81 41.7089 38.0285 41.7089 38.2978C41.7089 38.557 41.6221 38.7705 41.4485 38.9382C41.2748 39.111 41.0604 39.1973 40.805 39.1973ZM40.1157 45.7378C40.0748 45.7378 40.0416 45.7251 40.0161 45.6997C39.9906 45.6743 39.9778 45.6413 39.9778 45.6006V39.9901C39.9778 39.9495 39.9906 39.9164 40.0161 39.891C40.0416 39.8656 40.0748 39.8529 40.1157 39.8529H41.4561C41.497 39.8529 41.5302 39.8656 41.5557 39.891C41.5812 39.9164 41.594 39.9495 41.594 39.9901V45.6006C41.594 45.6413 41.5812 45.6743 41.5557 45.6997C41.5302 45.7251 41.497 45.7378 41.4561 45.7378H40.1157ZM42.9957 45.7378C42.9599 45.7378 42.9267 45.7251 42.8961 45.6997C42.8706 45.6743 42.8578 45.6413 42.8578 45.6006V37.871C42.8578 37.8354 42.8706 37.8023 42.8961 37.7719C42.9267 37.7464 42.9599 37.7337 42.9957 37.7337H44.3438C44.3795 37.7337 44.4102 37.7464 44.4357 37.7719C44.4663 37.8023 44.4816 37.8354 44.4816 37.871V45.6006C44.4816 45.6413 44.4663 45.6743 44.4357 45.6997C44.4102 45.7251 44.3795 45.7378 44.3438 45.7378H42.9957ZM46.5344 39.1973C46.274 39.1973 46.057 39.111 45.8833 38.9382C45.7097 38.7705 45.6229 38.557 45.6229 38.2978C45.6229 38.0285 45.7072 37.81 45.8757 37.6423C46.0493 37.4746 46.2689 37.3907 46.5344 37.3907C46.7999 37.3907 47.017 37.4746 47.1855 37.6423C47.354 37.81 47.4382 38.0285 47.4382 38.2978C47.4382 38.557 47.354 38.7705 47.1855 38.9382C47.0119 39.111 46.7948 39.1973 46.5344 39.1973ZM45.845 45.7378C45.8042 45.7378 45.771 45.7251 45.7455 45.6997C45.7199 45.6743 45.7072 45.6413 45.7072 45.6006V39.9901C45.7072 39.9495 45.7199 39.9164 45.7455 39.891C45.771 39.8656 45.8042 39.8529 45.845 39.8529H47.1855C47.2263 39.8529 47.2595 39.8656 47.2851 39.891C47.3106 39.9164 47.3233 39.9495 47.3233 39.9901V45.6006C47.3233 45.6413 47.3106 45.6743 47.2851 45.6997C47.2595 45.7251 47.2263 45.7378 47.1855 45.7378H45.845ZM51.9804 41.0192C51.9804 41.0548 51.9676 41.0853 51.9421 41.1107C51.9165 41.1412 51.8833 41.1564 51.8425 41.1564H50.7395C50.7038 41.1564 50.6859 41.1742 50.6859 41.2098V43.6339C50.6859 43.8829 50.737 44.071 50.8391 44.198C50.9412 44.32 51.1072 44.381 51.337 44.381H51.7199C51.7557 44.381 51.7863 44.3937 51.8119 44.4191C51.8425 44.4445 51.8578 44.4775 51.8578 44.5182V45.6006C51.8578 45.687 51.8119 45.7353 51.7199 45.7455C51.3931 45.7607 51.1633 45.7683 51.0306 45.7683C50.3923 45.7683 49.9174 45.6642 49.6059 45.4558C49.2893 45.2474 49.1285 44.8536 49.1233 44.2742V41.2098C49.1233 41.1742 49.1029 41.1564 49.0621 41.1564H48.411C48.3702 41.1564 48.337 41.1412 48.3114 41.1107C48.2859 41.0853 48.2731 41.0548 48.2731 41.0192V39.9978C48.2731 39.9622 48.2859 39.9292 48.3114 39.8987C48.337 39.8733 48.3702 39.8605 48.411 39.8605H49.0621C49.1029 39.8605 49.1233 39.8402 49.1233 39.7996V38.4427C49.1233 38.4071 49.1361 38.3741 49.1616 38.3436C49.1872 38.3182 49.2204 38.3055 49.2612 38.3055H50.548C50.5838 38.3055 50.6144 38.3182 50.6399 38.3436C50.6706 38.3741 50.6859 38.4071 50.6859 38.4427V39.7996C50.6859 39.8402 50.7038 39.8605 50.7395 39.8605H51.8425C51.8833 39.8605 51.9165 39.8733 51.9421 39.8987C51.9676 39.9292 51.9804 39.9622 51.9804 39.9978V41.0192ZM52.9225 48.0095C52.9021 48.0095 52.8842 47.9968 52.8689 47.9714C52.8536 47.946 52.8459 47.9129 52.8459 47.8723V46.8279C52.8459 46.7873 52.8587 46.7542 52.8842 46.7288C52.9097 46.6983 52.9429 46.6831 52.9838 46.6831C53.3055 46.678 53.5582 46.6526 53.7421 46.6069C53.931 46.5611 54.0816 46.4722 54.194 46.3401C54.3063 46.213 54.3931 46.0224 54.4544 45.7683C54.4595 45.7531 54.4595 45.7328 54.4544 45.7073L52.5702 40.013C52.5599 39.9978 52.5548 39.9774 52.5548 39.952C52.5548 39.886 52.5982 39.8529 52.685 39.8529H54.1174C54.2042 39.8529 54.2578 39.891 54.2782 39.9673L55.2433 43.672C55.2536 43.6923 55.2663 43.7025 55.2816 43.7025C55.297 43.7025 55.3072 43.6923 55.3123 43.672L56.2774 39.9673C56.3029 39.891 56.3565 39.8529 56.4382 39.8529H57.8399C57.8859 39.8529 57.9191 39.8656 57.9395 39.891C57.9599 39.9164 57.9625 39.9571 57.9472 40.013L55.9557 45.9513C55.7668 46.5103 55.5727 46.9296 55.3736 47.2091C55.1744 47.4886 54.8936 47.6919 54.531 47.8189C54.1736 47.946 53.6655 48.0095 53.0068 48.0095H52.9225ZM29.737 30.1337C29.691 30.154 29.691 30.1769 29.737 30.2023C30.4621 30.5732 30.8246 31.1933 30.8246 32.0623C30.8246 32.8042 30.5719 33.3632 30.0663 33.7393C29.5608 34.1154 28.8995 34.3034 28.0825 34.3034H25.1029C25.0672 34.3034 25.0365 34.2907 25.011 34.2653C24.9804 34.2399 24.965 34.2069 24.965 34.1662V26.4365C24.965 26.401 24.9804 26.3679 25.011 26.3374C25.0365 26.312 25.0672 26.2993 25.1029 26.2993H27.9906C29.8033 26.2993 30.7097 27.0311 30.7097 28.4947C30.7097 29.257 30.3855 29.8033 29.737 30.1337ZM26.6425 27.6791C26.6068 27.6791 26.5889 27.6994 26.5889 27.7401V29.5238C26.5889 29.5645 26.6068 29.5848 26.6425 29.5848H27.9906C28.348 29.5848 28.6289 29.501 28.8331 29.3333C29.0272 29.1655 29.1242 28.9369 29.1242 28.6472C29.1242 28.3474 29.0272 28.111 28.8331 27.9383C28.6289 27.7655 28.348 27.6791 27.9906 27.6791H26.6425ZM28.0825 32.9084C28.4348 32.9084 28.7106 32.8195 28.9097 32.6416C29.1089 32.4637 29.2085 32.2173 29.2085 31.9022C29.2085 31.5922 29.1089 31.3457 28.9097 31.1628C28.7106 30.9849 28.4297 30.896 28.0672 30.896H26.6425C26.6068 30.896 26.5889 30.9163 26.5889 30.9569V32.8474C26.5889 32.8881 26.6068 32.9084 26.6425 32.9084H28.0825ZM37.2127 30.7587C37.2587 31.0484 37.274 31.3711 37.2587 31.7269C37.2536 31.8234 37.205 31.8717 37.1131 31.8717H33.5591C33.5131 31.8717 33.4978 31.8895 33.5131 31.9251C33.5387 32.0775 33.5821 32.23 33.6433 32.3824C33.8425 32.8093 34.2485 33.0228 34.8612 33.0228C35.3514 33.0177 35.737 32.8195 36.0178 32.4282C36.0485 32.3824 36.0842 32.3596 36.125 32.3596C36.1455 32.3596 36.171 32.3748 36.2016 32.4053L37.0289 33.2133C37.0697 33.254 37.0902 33.2896 37.0902 33.3201C37.0902 33.3353 37.0748 33.3658 37.0442 33.4115C36.7889 33.7266 36.4621 33.968 36.0638 34.1357C35.6706 34.3085 35.234 34.3949 34.754 34.3949C34.0953 34.3949 33.5387 34.2475 33.0842 33.9528C32.6297 33.6529 32.3029 33.2362 32.1038 32.7026C31.9404 32.3214 31.8587 31.8234 31.8587 31.2085C31.8587 30.7867 31.9174 30.4157 32.0348 30.0955C32.2085 29.5569 32.5174 29.1274 32.9616 28.8073C33.4008 28.4871 33.9216 28.327 34.5242 28.327C35.2902 28.327 35.9055 28.5481 36.3702 28.9902C36.8348 29.4323 37.1157 30.0219 37.2127 30.7587ZM34.5395 29.722C34.0544 29.722 33.7353 29.9456 33.5821 30.3928C33.5514 30.4945 33.5259 30.6164 33.5055 30.7587C33.5055 30.7943 33.5233 30.8121 33.5591 30.8121H35.5506C35.5965 30.8121 35.6119 30.7943 35.5965 30.7587C35.5557 30.5402 35.5353 30.4335 35.5353 30.4386C35.4689 30.2099 35.3489 30.032 35.1753 29.905C35.0016 29.783 34.7897 29.722 34.5395 29.722ZM40.537 34.3796C40.0212 34.3796 39.5719 34.3085 39.1889 34.1662C38.8059 34.0239 38.5097 33.8232 38.3004 33.564C38.091 33.3048 37.9863 33.0101 37.9863 32.6797V32.5654C37.9863 32.5298 37.9991 32.4968 38.0246 32.4663C38.0502 32.4409 38.0833 32.4282 38.1242 32.4282H39.3957C39.4365 32.4282 39.4697 32.4409 39.4953 32.4663C39.5208 32.4968 39.5336 32.5298 39.5336 32.5654V32.573C39.5336 32.7458 39.628 32.8906 39.817 33.0075C40.0059 33.1244 40.2408 33.1828 40.5216 33.1828C40.7821 33.1828 40.994 33.132 41.1574 33.0304C41.3157 32.9237 41.3948 32.7966 41.3948 32.6492C41.3948 32.512 41.3259 32.4078 41.188 32.3367C41.0502 32.2706 40.8255 32.1995 40.514 32.1233C40.1514 32.0318 39.868 31.9428 39.6638 31.8564C39.1736 31.6887 38.7829 31.4829 38.4919 31.239C38.2008 30.9951 38.0553 30.6444 38.0553 30.187C38.0553 29.6229 38.2748 29.1757 38.714 28.8454C39.1531 28.5151 39.7378 28.3499 40.468 28.3499C40.9582 28.3499 41.3872 28.4261 41.7548 28.5786C42.1225 28.7361 42.4085 28.9572 42.6127 29.2418C42.8119 29.5213 42.9114 29.8414 42.9114 30.2023C42.9114 30.2378 42.8987 30.2683 42.8731 30.2937C42.8476 30.3192 42.8144 30.3319 42.7736 30.3319H41.548C41.5072 30.3319 41.474 30.3192 41.4485 30.2937C41.4229 30.2683 41.4102 30.2378 41.4102 30.2023C41.4102 30.0346 41.3233 29.8923 41.1497 29.7754C40.9761 29.6585 40.7489 29.6001 40.468 29.6001C40.2127 29.6001 40.0059 29.6483 39.8476 29.7449C39.6842 29.8364 39.6025 29.9609 39.6025 30.1184C39.6025 30.2709 39.6816 30.3852 39.8399 30.4614C39.9982 30.5377 40.2612 30.619 40.6289 30.7054C40.7106 30.7257 40.805 30.7486 40.9123 30.774C41.0195 30.7994 41.1344 30.8324 41.257 30.8731C41.8033 31.0357 42.2323 31.2415 42.5438 31.4905C42.8604 31.7446 43.0187 32.1105 43.0187 32.5883C43.0187 33.1523 42.794 33.5919 42.3446 33.907C41.8953 34.2221 41.2927 34.3796 40.537 34.3796ZM47.3233 29.5848C47.3233 29.6204 47.3106 29.6509 47.2851 29.6763C47.2595 29.7068 47.2263 29.722 47.1855 29.722H46.0825C46.0467 29.722 46.0289 29.7398 46.0289 29.7754V32.1995C46.0289 32.4485 46.0799 32.6365 46.1821 32.7636C46.2842 32.8855 46.4527 32.9465 46.6876 32.9465H47.0629C47.0987 32.9465 47.1319 32.9592 47.1625 32.9846C47.188 33.0101 47.2008 33.0431 47.2008 33.0837V34.1662C47.2008 34.2526 47.1548 34.3009 47.0629 34.311C46.7412 34.3263 46.5114 34.3339 46.3736 34.3339C45.7353 34.3339 45.2604 34.2297 44.9489 34.0214C44.6323 33.813 44.4714 33.4192 44.4663 32.8398V29.7754C44.4663 29.7398 44.4459 29.722 44.405 29.722H43.754C43.7131 29.722 43.6799 29.7068 43.6544 29.6763C43.6289 29.6509 43.6161 29.6204 43.6161 29.5848V28.5633C43.6161 28.5278 43.6289 28.4947 43.6544 28.4642C43.6799 28.4388 43.7131 28.4261 43.754 28.4261H44.405C44.4459 28.4261 44.4663 28.4058 44.4663 28.3651V27.0083C44.4663 26.9727 44.4791 26.9396 44.5046 26.9092C44.5302 26.8837 44.5633 26.871 44.6042 26.871H45.891C45.9267 26.871 45.9599 26.8837 45.9906 26.9092C46.0161 26.9396 46.0289 26.9727 46.0289 27.0083V28.3651C46.0289 28.4058 46.0467 28.4261 46.0825 28.4261H47.1855C47.2263 28.4261 47.2595 28.4388 47.2851 28.4642C47.3106 28.4947 47.3233 28.5278 47.3233 28.5633V29.5848Z" fill="#252530"/>
<path d="M13.4441 57.5382C13.0458 57.5382 12.6986 57.4747 12.4024 57.3476C12.1062 57.2206 11.8764 57.0427 11.713 56.814C11.5547 56.5853 11.4756 56.316 11.4756 56.006V55.8154C11.4756 55.79 11.4858 55.7671 11.5062 55.7468C11.5215 55.7316 11.542 55.7239 11.5675 55.7239H12.2492C12.2747 55.7239 12.2977 55.7316 12.3181 55.7468C12.3335 55.7671 12.3411 55.79 12.3411 55.8154V55.9603C12.3411 56.194 12.4458 56.3871 12.6552 56.5396C12.8645 56.6971 13.1505 56.7759 13.513 56.7759C13.8245 56.7759 14.0594 56.7098 14.2177 56.5777C14.376 56.4456 14.4552 56.2753 14.4552 56.067C14.4552 55.9247 14.4118 55.8027 14.3249 55.7011C14.2381 55.6045 14.1156 55.5156 13.9573 55.4343C13.7939 55.353 13.5513 55.2513 13.2296 55.1293C12.8671 54.9972 12.5735 54.8727 12.3488 54.7558C12.1241 54.6389 11.9377 54.4789 11.7896 54.2756C11.6364 54.0774 11.5598 53.8284 11.5598 53.5285C11.5598 53.0813 11.7232 52.7281 12.0501 52.4689C12.3769 52.2098 12.8135 52.0802 13.3598 52.0802C13.7428 52.0802 14.0824 52.1462 14.3786 52.2784C14.6696 52.4105 14.8969 52.596 15.0603 52.8348C15.2237 53.0686 15.3054 53.3405 15.3054 53.6505V53.7801C15.3054 53.8055 15.2952 53.8284 15.2747 53.8487C15.2594 53.8639 15.239 53.8716 15.2135 53.8716H14.5241C14.4986 53.8716 14.4781 53.8639 14.4628 53.8487C14.4424 53.8284 14.4322 53.8055 14.4322 53.7801V53.6962C14.4322 53.4574 14.3352 53.2566 14.1411 53.094C13.942 52.9263 13.6688 52.8425 13.3215 52.8425C13.0407 52.8425 12.8237 52.9009 12.6705 53.0178C12.5122 53.1347 12.433 53.2998 12.433 53.5133C12.433 53.6657 12.4739 53.7903 12.5556 53.8868C12.6373 53.9834 12.7598 54.0698 12.9232 54.146C13.0866 54.2273 13.3394 54.3289 13.6815 54.4509C14.0441 54.5881 14.3352 54.7126 14.5547 54.8244C14.7692 54.9362 14.9556 55.0912 15.1139 55.2894C15.2671 55.4927 15.3437 55.7443 15.3437 56.0441C15.3437 56.5015 15.1726 56.8648 14.8305 57.1342C14.4935 57.4035 14.0313 57.5382 13.4441 57.5382ZM20.3454 53.5209C20.7386 53.5209 21.0475 53.6378 21.2722 53.8716C21.4918 54.1104 21.6015 54.4407 21.6015 54.8625V57.3857C21.6015 57.4112 21.5939 57.4315 21.5786 57.4467C21.5581 57.4671 21.5352 57.4772 21.5096 57.4772H20.8126C20.7871 57.4772 20.7666 57.4671 20.7513 57.4467C20.7309 57.4315 20.7207 57.4112 20.7207 57.3857V55.0455C20.7207 54.8117 20.6594 54.6262 20.5369 54.489C20.4092 54.3518 20.2407 54.2832 20.0313 54.2832C19.822 54.2832 19.6509 54.3518 19.5181 54.489C19.3854 54.6262 19.319 54.8092 19.319 55.0379V57.3857C19.319 57.4112 19.3113 57.4315 19.296 57.4467C19.2756 57.4671 19.2526 57.4772 19.2271 57.4772H18.5301C18.5045 57.4772 18.4815 57.4671 18.4611 57.4467C18.4458 57.4315 18.4381 57.4112 18.4381 57.3857V55.0455C18.4381 54.8117 18.3743 54.6262 18.2466 54.489C18.119 54.3518 17.9505 54.2832 17.7411 54.2832C17.5471 54.2832 17.3862 54.3391 17.2586 54.4509C17.136 54.5627 17.0645 54.7152 17.0441 54.9083V57.3857C17.0441 57.4112 17.0364 57.4315 17.0211 57.4467C17.0007 57.4671 16.9777 57.4772 16.9522 57.4772H16.2475C16.222 57.4772 16.2015 57.4671 16.1862 57.4467C16.1658 57.4315 16.1556 57.4112 16.1556 57.3857V53.6734C16.1556 53.648 16.1658 53.6251 16.1862 53.6048C16.2015 53.5895 16.222 53.5819 16.2475 53.5819H16.9522C16.9777 53.5819 17.0007 53.5895 17.0211 53.6048C17.0364 53.6251 17.0441 53.648 17.0441 53.6734V53.9249C17.0441 53.9402 17.0492 53.9503 17.0594 53.9554C17.0696 53.9605 17.0798 53.9554 17.0901 53.9402C17.2024 53.7979 17.3403 53.6937 17.5037 53.6276C17.6722 53.5565 17.8586 53.5209 18.0628 53.5209C18.313 53.5209 18.5326 53.5717 18.7215 53.6734C18.9105 53.775 19.056 53.9224 19.1581 54.1155C19.1735 54.1358 19.1913 54.1358 19.2118 54.1155C19.3241 53.9122 19.4798 53.7623 19.679 53.6657C19.8781 53.5692 20.1003 53.5209 20.3454 53.5209ZM23.999 53.5209C24.3207 53.5209 24.6041 53.5768 24.8492 53.6886C25.0943 53.8004 25.2832 53.9529 25.416 54.146C25.5488 54.3442 25.6152 54.5678 25.6152 54.8168V57.3857C25.6152 57.4112 25.6075 57.4315 25.5922 57.4467C25.5718 57.4671 25.5488 57.4772 25.5232 57.4772H24.8186C24.793 57.4772 24.7726 57.4671 24.7573 57.4467C24.7369 57.4315 24.7266 57.4112 24.7266 57.3857V57.1418C24.7266 57.1266 24.7215 57.1164 24.7113 57.1113C24.7011 57.1113 24.6909 57.1164 24.6807 57.1266C24.4305 57.401 24.0679 57.5382 23.593 57.5382C23.2101 57.5382 22.896 57.4416 22.6509 57.2485C22.4007 57.0554 22.2756 56.7683 22.2756 56.3871C22.2756 55.9907 22.416 55.6807 22.6969 55.4571C22.9726 55.2386 23.3632 55.1293 23.8688 55.1293H24.6884C24.7139 55.1293 24.7266 55.1166 24.7266 55.0912V54.9083C24.7266 54.7101 24.6679 54.5551 24.5505 54.4433C24.433 54.3366 24.2569 54.2832 24.022 54.2832C23.8279 54.2832 23.6722 54.3188 23.5547 54.3899C23.4322 54.456 23.3556 54.55 23.3249 54.672C23.3096 54.733 23.2739 54.7584 23.2177 54.7482L22.4747 54.6567C22.4492 54.6516 22.4288 54.644 22.4135 54.6339C22.393 54.6186 22.3854 54.6008 22.3905 54.5805C22.4313 54.2705 22.5998 54.0164 22.896 53.8182C23.1871 53.62 23.5547 53.5209 23.999 53.5209ZM23.8152 56.8369C24.0654 56.8369 24.2798 56.7708 24.4586 56.6387C24.6373 56.5066 24.7266 56.3389 24.7266 56.1356V55.7773C24.7266 55.7519 24.7139 55.7392 24.6884 55.7392H24.0449C23.7743 55.7392 23.5624 55.79 23.4092 55.8916C23.2509 55.9933 23.1718 56.1381 23.1718 56.3262C23.1718 56.4888 23.233 56.6133 23.3556 56.6997C23.473 56.7911 23.6262 56.8369 23.8152 56.8369ZM26.5956 57.4772C26.5701 57.4772 26.5496 57.4671 26.5343 57.4467C26.5139 57.4315 26.5037 57.4112 26.5037 57.3857V52.2326C26.5037 52.2072 26.5139 52.1869 26.5343 52.1716C26.5496 52.1513 26.5701 52.1412 26.5956 52.1412H27.3003C27.3258 52.1412 27.3488 52.1513 27.3692 52.1716C27.3845 52.1869 27.3922 52.2072 27.3922 52.2326V57.3857C27.3922 57.4112 27.3845 57.4315 27.3692 57.4467C27.3488 57.4671 27.3258 57.4772 27.3003 57.4772H26.5956ZM28.4262 57.4772C28.4007 57.4772 28.3803 57.4671 28.3649 57.4467C28.3445 57.4315 28.3343 57.4112 28.3343 57.3857V52.2326C28.3343 52.2072 28.3445 52.1869 28.3649 52.1716C28.3803 52.1513 28.4007 52.1412 28.4262 52.1412H29.1309C29.1564 52.1412 29.1794 52.1513 29.1998 52.1716C29.2152 52.1869 29.2228 52.2072 29.2228 52.2326V57.3857C29.2228 57.4112 29.2152 57.4315 29.1998 57.4467C29.1794 57.4671 29.1564 57.4772 29.1309 57.4772H28.4262ZM34.776 54.6948C34.7454 54.7101 34.7454 54.7253 34.776 54.7406C35.2969 54.9845 35.5573 55.4038 35.5573 55.9984C35.5573 56.4812 35.3964 56.8496 35.0747 57.1037C34.7479 57.3527 34.3241 57.4772 33.8032 57.4772H31.873C31.8475 57.4772 31.8271 57.4671 31.8118 57.4467C31.7913 57.4315 31.7811 57.4112 31.7811 57.3857V52.2326C31.7811 52.2072 31.7913 52.1869 31.8118 52.1716C31.8271 52.1513 31.8475 52.1412 31.873 52.1412H33.742C34.2986 52.1412 34.7275 52.2606 35.0288 52.4994C35.3301 52.7383 35.4807 53.0991 35.4807 53.5819C35.4807 54.1155 35.2458 54.4865 34.776 54.6948ZM32.7079 52.9034C32.6824 52.9034 32.6696 52.9161 32.6696 52.9416V54.3518C32.6696 54.3772 32.6824 54.3899 32.7079 54.3899H33.742C34.0126 54.3899 34.2271 54.3264 34.3854 54.1993C34.5386 54.0672 34.6152 53.8868 34.6152 53.6581C34.6152 53.4243 34.5386 53.2389 34.3854 53.1016C34.2271 52.9695 34.0126 52.9034 33.742 52.9034H32.7079ZM33.8032 56.7073C34.0688 56.7073 34.2807 56.6362 34.439 56.4939C34.5922 56.3516 34.6688 56.1584 34.6688 55.9145C34.6688 55.6655 34.5896 55.4724 34.4313 55.3352C34.273 55.1929 34.0586 55.1217 33.7879 55.1217H32.7079C32.6824 55.1217 32.6696 55.1344 32.6696 55.1598V56.6692C32.6696 56.6946 32.6824 56.7073 32.7079 56.7073H33.8032ZM38.7054 53.6734C38.7054 53.648 38.713 53.6251 38.7284 53.6048C38.7488 53.5895 38.7718 53.5819 38.7973 53.5819H39.4943C39.5198 53.5819 39.5428 53.5895 39.5632 53.6048C39.5786 53.6251 39.5862 53.648 39.5862 53.6734V57.3857C39.5862 57.4112 39.5786 57.4315 39.5632 57.4467C39.5428 57.4671 39.5198 57.4772 39.4943 57.4772H38.7973C38.7718 57.4772 38.7488 57.4671 38.7284 57.4467C38.713 57.4315 38.7054 57.4112 38.7054 57.3857V57.1418C38.7054 57.1266 38.7003 57.1164 38.6901 57.1113C38.6798 57.1062 38.6696 57.1113 38.6594 57.1266C38.4501 57.3959 38.136 57.5306 37.7173 57.5306C37.3292 57.5306 37.0049 57.4188 36.7445 57.1952C36.479 56.9716 36.3462 56.6539 36.3462 56.2423V53.6734C36.3462 53.648 36.3539 53.6251 36.3692 53.6048C36.3896 53.5895 36.4126 53.5819 36.4381 53.5819H37.1428C37.1684 53.5819 37.1913 53.5895 37.2118 53.6048C37.2271 53.6251 37.2347 53.648 37.2347 53.6734V55.9907C37.2347 56.2296 37.2986 56.4202 37.4262 56.5625C37.5488 56.7048 37.7224 56.7759 37.9471 56.7759C38.1769 56.7759 38.3607 56.7048 38.4986 56.5625C38.6364 56.4202 38.7054 56.2296 38.7054 55.9907V53.6734ZM41.9913 57.523C41.6696 57.523 41.3862 57.4747 41.1411 57.3781C40.9011 57.2866 40.7147 57.1571 40.582 56.9893C40.4492 56.8267 40.3828 56.6438 40.3828 56.4405V56.3719C40.3828 56.3465 40.3905 56.3236 40.4058 56.3033C40.4262 56.288 40.4492 56.2804 40.4747 56.2804H41.1488C41.1743 56.2804 41.1947 56.288 41.2101 56.3033C41.2305 56.3236 41.2407 56.3465 41.2407 56.3719V56.3871C41.2407 56.5142 41.3096 56.626 41.4475 56.7225C41.5905 56.814 41.7692 56.8598 41.9837 56.8598C42.1879 56.8598 42.3539 56.8191 42.4815 56.7378C42.6092 56.6514 42.673 56.5447 42.673 56.4176C42.673 56.3007 42.6194 56.2118 42.5122 56.1508C42.4101 56.0949 42.2415 56.0339 42.0066 55.9679L41.7156 55.8764C41.4552 55.8002 41.2356 55.7189 41.0569 55.6325C40.8781 55.5461 40.7275 55.4266 40.6049 55.2742C40.4824 55.1268 40.4211 54.9362 40.4211 54.7025C40.4211 54.3467 40.5615 54.0647 40.8424 53.8563C41.1232 53.6429 41.4935 53.5362 41.953 53.5362C42.2645 53.5362 42.5377 53.5844 42.7726 53.681C43.0075 53.7826 43.1888 53.9198 43.3164 54.0926C43.4441 54.2705 43.5079 54.4712 43.5079 54.6948C43.5079 54.7202 43.4977 54.7431 43.4773 54.7634C43.462 54.7787 43.4415 54.7863 43.416 54.7863H42.7649C42.7394 54.7863 42.7164 54.7787 42.696 54.7634C42.6807 54.7431 42.673 54.7202 42.673 54.6948C42.673 54.5627 42.6066 54.4534 42.4739 54.3671C42.3462 54.2756 42.1701 54.2298 41.9454 54.2298C41.7462 54.2298 41.5828 54.2654 41.4552 54.3366C41.3326 54.4128 41.2713 54.517 41.2713 54.6491C41.2713 54.7711 41.3301 54.8625 41.4475 54.9235C41.5701 54.9896 41.7718 55.0607 42.0526 55.137L42.2211 55.1827C42.4918 55.264 42.719 55.3453 42.9028 55.4266C43.0866 55.513 43.2424 55.6299 43.3701 55.7773C43.4977 55.9298 43.5615 56.1254 43.5615 56.3643C43.5615 56.7251 43.4186 57.0071 43.1326 57.2104C42.8466 57.4188 42.4662 57.523 41.9913 57.523ZM44.8177 53.0483C44.6594 53.0483 44.5292 52.9975 44.4271 52.8958C44.3249 52.7942 44.2739 52.6646 44.2739 52.507C44.2739 52.3495 44.3249 52.2199 44.4271 52.1183C44.5292 52.0166 44.6594 51.9658 44.8177 51.9658C44.976 51.9658 45.1062 52.0166 45.2084 52.1183C45.3105 52.2199 45.3615 52.3495 45.3615 52.507C45.3615 52.6646 45.3105 52.7942 45.2084 52.8958C45.1062 52.9975 44.976 53.0483 44.8177 53.0483ZM44.4501 57.4772C44.4245 57.4772 44.4015 57.4671 44.3811 57.4467C44.3658 57.4315 44.3581 57.4112 44.3581 57.3857V53.6657C44.3581 53.6403 44.3658 53.62 44.3811 53.6048C44.4015 53.5844 44.4245 53.5743 44.4501 53.5743H45.1547C45.1803 53.5743 45.2007 53.5844 45.216 53.6048C45.2364 53.62 45.2466 53.6403 45.2466 53.6657V57.3857C45.2466 57.4112 45.2364 57.4315 45.216 57.4467C45.2007 57.4671 45.1803 57.4772 45.1547 57.4772H44.4501ZM48.142 53.5209C48.5556 53.5209 48.8849 53.6429 49.1301 53.8868C49.3803 54.1307 49.5054 54.4636 49.5054 54.8854V57.3857C49.5054 57.4112 49.4952 57.4315 49.4747 57.4467C49.4594 57.4671 49.439 57.4772 49.4135 57.4772H48.7088C48.6832 57.4772 48.6603 57.4671 48.6398 57.4467C48.6245 57.4315 48.6169 57.4112 48.6169 57.3857V55.0684C48.6169 54.8346 48.5505 54.644 48.4177 54.4966C48.2849 54.3543 48.1088 54.2832 47.8892 54.2832C47.6696 54.2832 47.4909 54.3543 47.353 54.4966C47.2203 54.6389 47.1539 54.827 47.1539 55.0607V57.3857C47.1539 57.4112 47.1437 57.4315 47.1232 57.4467C47.1079 57.4671 47.0875 57.4772 47.062 57.4772H46.3573C46.3318 57.4772 46.3088 57.4671 46.2883 57.4467C46.273 57.4315 46.2654 57.4112 46.2654 57.3857V53.6734C46.2654 53.648 46.273 53.6251 46.2883 53.6048C46.3088 53.5895 46.3318 53.5819 46.3573 53.5819H47.062C47.0875 53.5819 47.1079 53.5895 47.1232 53.6048C47.1437 53.6251 47.1539 53.648 47.1539 53.6734V53.9173C47.1539 53.9325 47.159 53.9427 47.1692 53.9478C47.1794 53.9529 47.1871 53.9478 47.1922 53.9325C47.4015 53.6581 47.7181 53.5209 48.142 53.5209ZM53.7028 55.0912C53.7232 55.2183 53.7335 55.3606 53.7335 55.5181L53.7258 55.7544C53.7258 55.8154 53.6952 55.8459 53.6339 55.8459H51.2364C51.2109 55.8459 51.1981 55.8586 51.1981 55.884C51.2135 56.0517 51.2364 56.1661 51.2671 56.2271C51.3896 56.593 51.6883 56.7784 52.1632 56.7835C52.5105 56.7835 52.7862 56.6412 52.9905 56.3566C53.0109 56.3262 53.0364 56.3109 53.0671 56.3109C53.0875 56.3109 53.1054 56.3185 53.1207 56.3338L53.5956 56.7225C53.6415 56.7581 53.6492 56.7988 53.6186 56.8445C53.4603 57.0681 53.2483 57.2409 52.9828 57.3629C52.7224 57.4848 52.4313 57.5458 52.1096 57.5458C51.7113 57.5458 51.3718 57.4569 51.0909 57.279C50.8152 57.1012 50.6135 56.8521 50.4858 56.532C50.3684 56.2575 50.3096 55.8764 50.3096 55.3885C50.3096 55.0938 50.3403 54.8549 50.4015 54.672C50.5037 54.3162 50.6952 54.0342 50.976 53.8258C51.262 53.6225 51.6041 53.5209 52.0024 53.5209C53.0083 53.5209 53.5752 54.0443 53.7028 55.0912ZM52.0024 54.2832C51.8135 54.2832 51.6552 54.3315 51.5275 54.428C51.4049 54.5195 51.3181 54.6491 51.2671 54.8168C51.2364 54.9032 51.216 55.015 51.2058 55.1522C51.1956 55.1776 51.2058 55.1903 51.2364 55.1903H52.7913C52.8169 55.1903 52.8296 55.1776 52.8296 55.1522C52.8194 55.0252 52.8041 54.9286 52.7837 54.8625C52.7377 54.6796 52.6458 54.5373 52.5079 54.4357C52.3752 54.334 52.2066 54.2832 52.0024 54.2832ZM55.9394 57.523C55.6177 57.523 55.3343 57.4747 55.0892 57.3781C54.8492 57.2866 54.6628 57.1571 54.5301 56.9893C54.3973 56.8267 54.3309 56.6438 54.3309 56.4405V56.3719C54.3309 56.3465 54.3386 56.3236 54.3539 56.3033C54.3743 56.288 54.3973 56.2804 54.4228 56.2804H55.0969C55.1224 56.2804 55.1428 56.288 55.1581 56.3033C55.1786 56.3236 55.1888 56.3465 55.1888 56.3719V56.3871C55.1888 56.5142 55.2577 56.626 55.3956 56.7225C55.5386 56.814 55.7173 56.8598 55.9318 56.8598C56.136 56.8598 56.302 56.8191 56.4296 56.7378C56.5573 56.6514 56.6211 56.5447 56.6211 56.4176C56.6211 56.3007 56.5675 56.2118 56.4603 56.1508C56.3581 56.0949 56.1896 56.0339 55.9547 55.9679L55.6637 55.8764C55.4032 55.8002 55.1837 55.7189 55.0049 55.6325C54.8262 55.5461 54.6756 55.4266 54.553 55.2742C54.4305 55.1268 54.3692 54.9362 54.3692 54.7025C54.3692 54.3467 54.5096 54.0647 54.7905 53.8563C55.0713 53.6429 55.4415 53.5362 55.9011 53.5362C56.2126 53.5362 56.4858 53.5844 56.7207 53.681C56.9556 53.7826 57.1369 53.9198 57.2645 54.0926C57.3922 54.2705 57.456 54.4712 57.456 54.6948C57.456 54.7202 57.4458 54.7431 57.4254 54.7634C57.4101 54.7787 57.3896 54.7863 57.3641 54.7863H56.713C56.6875 54.7863 56.6645 54.7787 56.6441 54.7634C56.6288 54.7431 56.6211 54.7202 56.6211 54.6948C56.6211 54.5627 56.5547 54.4534 56.422 54.3671C56.2943 54.2756 56.1181 54.2298 55.8935 54.2298C55.6943 54.2298 55.5309 54.2654 55.4032 54.3366C55.2807 54.4128 55.2194 54.517 55.2194 54.6491C55.2194 54.7711 55.2781 54.8625 55.3956 54.9235C55.5181 54.9896 55.7198 55.0607 56.0007 55.137L56.1692 55.1827C56.4398 55.264 56.6671 55.3453 56.8509 55.4266C57.0347 55.513 57.1905 55.6299 57.3181 55.7773C57.4458 55.9298 57.5096 56.1254 57.5096 56.3643C57.5096 56.7251 57.3666 57.0071 57.0807 57.2104C56.7947 57.4188 56.4143 57.523 55.9394 57.523ZM59.639 57.523C59.3173 57.523 59.0339 57.4747 58.7888 57.3781C58.5488 57.2866 58.3624 57.1571 58.2296 56.9893C58.0969 56.8267 58.0305 56.6438 58.0305 56.4405V56.3719C58.0305 56.3465 58.0381 56.3236 58.0535 56.3033C58.0739 56.288 58.0969 56.2804 58.1224 56.2804H58.7964C58.822 56.2804 58.8424 56.288 58.8577 56.3033C58.8781 56.3236 58.8884 56.3465 58.8884 56.3719V56.3871C58.8884 56.5142 58.9573 56.626 59.0952 56.7225C59.2381 56.814 59.4169 56.8598 59.6313 56.8598C59.8356 56.8598 60.0015 56.8191 60.1292 56.7378C60.2569 56.6514 60.3207 56.5447 60.3207 56.4176C60.3207 56.3007 60.2671 56.2118 60.1598 56.1508C60.0577 56.0949 59.8892 56.0339 59.6543 55.9679L59.3632 55.8764C59.1028 55.8002 58.8832 55.7189 58.7045 55.6325C58.5258 55.5461 58.3752 55.4266 58.2526 55.2742C58.1301 55.1268 58.0688 54.9362 58.0688 54.7025C58.0688 54.3467 58.2092 54.0647 58.49 53.8563C58.7709 53.6429 59.1411 53.5362 59.6007 53.5362C59.9122 53.5362 60.1854 53.5844 60.4203 53.681C60.6552 53.7826 60.8364 53.9198 60.9641 54.0926C61.0918 54.2705 61.1556 54.4712 61.1556 54.6948C61.1556 54.7202 61.1454 54.7431 61.1249 54.7634C61.1096 54.7787 61.0892 54.7863 61.0637 54.7863H60.4126C60.3871 54.7863 60.3641 54.7787 60.3437 54.7634C60.3283 54.7431 60.3207 54.7202 60.3207 54.6948C60.3207 54.5627 60.2543 54.4534 60.1215 54.3671C59.9939 54.2756 59.8177 54.2298 59.593 54.2298C59.3939 54.2298 59.2305 54.2654 59.1028 54.3366C58.9803 54.4128 58.919 54.517 58.919 54.6491C58.919 54.7711 58.9777 54.8625 59.0952 54.9235C59.2177 54.9896 59.4194 55.0607 59.7003 55.137L59.8688 55.1827C60.1394 55.264 60.3666 55.3453 60.5505 55.4266C60.7343 55.513 60.8901 55.6299 61.0177 55.7773C61.1454 55.9298 61.2092 56.1254 61.2092 56.3643C61.2092 56.7251 61.0662 57.0071 60.7803 57.2104C60.4943 57.4188 60.1139 57.523 59.639 57.523Z" fill="#242530"/>
<path d="M24.3671 68.2252C24.311 68.2252 24.2752 68.1998 24.2599 68.149L22.9041 62.9883L22.8965 62.9578C22.8965 62.912 22.9246 62.8892 22.9807 62.8892H23.9305C23.9816 62.8892 24.0148 62.9146 24.0301 62.9654L24.7578 66.0679C24.7629 66.0883 24.7705 66.0984 24.7807 66.0984C24.791 66.0984 24.7986 66.0883 24.8037 66.0679L25.5084 62.973C25.5237 62.9171 25.5569 62.8892 25.608 62.8892H26.5348C26.591 62.8892 26.6267 62.9146 26.642 62.9654L27.408 66.0679C27.4131 66.0832 27.4207 66.0933 27.431 66.0984C27.4412 66.0984 27.4488 66.0883 27.4539 66.0679L28.1586 62.973C28.1739 62.9171 28.2071 62.8892 28.2582 62.8892H29.162C29.2335 62.8892 29.2616 62.9222 29.2463 62.9883L27.9901 68.149C27.9748 68.1998 27.939 68.2252 27.8829 68.2252H26.9714C26.9203 68.2252 26.8871 68.1998 26.8718 68.149L26.0905 64.8483C26.0854 64.8279 26.0778 64.8178 26.0675 64.8178C26.0573 64.8178 26.0497 64.8279 26.0446 64.8483L25.3169 68.1414C25.3067 68.1973 25.2735 68.2252 25.2173 68.2252H24.3671ZM29.9893 68.2252C29.9637 68.2252 29.9407 68.2151 29.9203 68.1947C29.905 68.1795 29.8973 68.1592 29.8973 68.1337V62.9806C29.8973 62.9552 29.905 62.9349 29.9203 62.9197C29.9407 62.8993 29.9637 62.8892 29.9893 62.8892H30.8854C30.911 62.8892 30.9314 62.8993 30.9467 62.9197C30.9671 62.9349 30.9773 62.9552 30.9773 62.9806V68.1337C30.9773 68.1592 30.9671 68.1795 30.9467 68.1947C30.9314 68.2151 30.911 68.2252 30.8854 68.2252H29.9893ZM34.991 62.9806C34.991 62.9552 34.9986 62.9349 35.0139 62.9197C35.0344 62.8993 35.0573 62.8892 35.0829 62.8892H35.979C36.0046 62.8892 36.025 62.8993 36.0403 62.9197C36.0607 62.9349 36.071 62.9552 36.071 62.9806V68.1337C36.071 68.1592 36.0607 68.1795 36.0403 68.1947C36.025 68.2151 36.0046 68.2252 35.979 68.2252H35.1135C35.0624 68.2252 35.0267 68.2049 35.0063 68.1642L33.0224 64.9016C33.0122 64.8864 33.002 64.8813 32.9918 64.8864C32.9816 64.8864 32.9765 64.8965 32.9765 64.9169L32.9918 68.1337C32.9918 68.1592 32.9816 68.1795 32.9612 68.1947C32.9458 68.2151 32.9254 68.2252 32.8999 68.2252H32.0037C31.9782 68.2252 31.9552 68.2151 31.9348 68.1947C31.9195 68.1795 31.9118 68.1592 31.9118 68.1337V62.9806C31.9118 62.9552 31.9195 62.9349 31.9348 62.9197C31.9552 62.8993 31.9782 62.8892 32.0037 62.8892H32.8692C32.9203 62.8892 32.9561 62.9095 32.9765 62.9501L34.9527 66.1975C34.9629 66.2128 34.9731 66.2178 34.9833 66.2128C34.9935 66.2128 34.9986 66.2026 34.9986 66.1823L34.991 62.9806ZM40.705 62.8892C40.7305 62.8892 40.751 62.8993 40.7663 62.9197C40.7867 62.9349 40.7969 62.9552 40.7969 62.9806V63.7277C40.7969 63.7531 40.7867 63.7734 40.7663 63.7887C40.751 63.809 40.7305 63.8192 40.705 63.8192H39.3339C39.3084 63.8192 39.2956 63.8319 39.2956 63.8573V68.1337C39.2956 68.1592 39.2854 68.1795 39.265 68.1947C39.2497 68.2151 39.2292 68.2252 39.2037 68.2252H38.3075C38.282 68.2252 38.259 68.2151 38.2386 68.1947C38.2233 68.1795 38.2156 68.1592 38.2156 68.1337V63.8573C38.2156 63.8319 38.2029 63.8192 38.1773 63.8192H36.8446C36.819 63.8192 36.7961 63.809 36.7756 63.7887C36.7603 63.7734 36.7527 63.7531 36.7527 63.7277V62.9806C36.7527 62.9552 36.7603 62.9349 36.7756 62.9197C36.7961 62.8993 36.819 62.8892 36.8446 62.8892H40.705ZM45.2088 63.7201C45.2088 63.7455 45.2012 63.7658 45.1858 63.781C45.1654 63.8014 45.1424 63.8115 45.1169 63.8115H42.6046C42.579 63.8115 42.5663 63.8242 42.5663 63.8497V65.0312C42.5663 65.0566 42.579 65.0693 42.6046 65.0693H44.2514C44.2769 65.0693 44.2973 65.0769 44.3127 65.0922C44.3331 65.1125 44.3433 65.1354 44.3433 65.1608V65.9002C44.3433 65.9256 44.3331 65.9485 44.3127 65.9688C44.2973 65.9841 44.2769 65.9917 44.2514 65.9917H42.6046C42.579 65.9917 42.5663 66.0044 42.5663 66.0298V67.2647C42.5663 67.2901 42.579 67.3028 42.6046 67.3028H45.1169C45.1424 67.3028 45.1654 67.3105 45.1858 67.3257C45.2012 67.346 45.2088 67.3689 45.2088 67.3943V68.1337C45.2088 68.1592 45.2012 68.1795 45.1858 68.1947C45.1654 68.2151 45.1424 68.2252 45.1169 68.2252H41.5782C41.5527 68.2252 41.5297 68.2151 41.5093 68.1947C41.4939 68.1795 41.4863 68.1592 41.4863 68.1337V62.9806C41.4863 62.9552 41.4939 62.9349 41.5093 62.9197C41.5297 62.8993 41.5527 62.8892 41.5782 62.8892H45.1169C45.1424 62.8892 45.1654 62.8993 45.1858 62.9197C45.2012 62.9349 45.2088 62.9552 45.2088 62.9806V63.7201ZM48.9007 68.2252C48.8497 68.2252 48.8139 68.2024 48.7935 68.1566L47.8361 66.0451C47.8258 66.0247 47.8105 66.0146 47.7901 66.0146H47.0778C47.0522 66.0146 47.0395 66.0273 47.0395 66.0527V68.1337C47.0395 68.1592 47.0293 68.1795 47.0088 68.1947C46.9935 68.2151 46.9731 68.2252 46.9475 68.2252H46.0514C46.0258 68.2252 46.0029 68.2151 45.9824 68.1947C45.9671 68.1795 45.9595 68.1592 45.9595 68.1337V62.9806C45.9595 62.9552 45.9671 62.9349 45.9824 62.9197C46.0029 62.8993 46.0258 62.8892 46.0514 62.8892H48.242C48.5688 62.8892 48.8548 62.9552 49.0999 63.0874C49.3501 63.2195 49.5416 63.4075 49.6744 63.6515C49.8122 63.8954 49.8812 64.1774 49.8812 64.4976C49.8812 64.8432 49.7944 65.1379 49.6207 65.3819C49.4471 65.6309 49.2046 65.8062 48.8931 65.9078C48.8675 65.918 48.8599 65.9358 48.8701 65.9612L49.9118 68.1185C49.922 68.1388 49.9271 68.1541 49.9271 68.1642C49.9271 68.2049 49.899 68.2252 49.8429 68.2252H48.9007ZM47.0778 63.8115C47.0522 63.8115 47.0395 63.8242 47.0395 63.8497V65.1532C47.0395 65.1786 47.0522 65.1913 47.0778 65.1913H48.0812C48.2956 65.1913 48.4692 65.1278 48.602 65.0007C48.7399 64.8737 48.8088 64.7085 48.8088 64.5052C48.8088 64.3019 48.7399 64.1342 48.602 64.0021C48.4692 63.8751 48.2956 63.8115 48.0812 63.8115H47.0778ZM29.3612 74.4227C29.351 74.4328 29.3484 74.443 29.3535 74.4532C29.3586 74.4633 29.3688 74.4684 29.3841 74.4684H31.4599C31.4854 74.4684 31.5084 74.476 31.5288 74.4913C31.5441 74.5116 31.5518 74.5345 31.5518 74.5599V75.2993C31.5518 75.3247 31.5441 75.3451 31.5288 75.3603C31.5084 75.3806 31.4854 75.3908 31.4599 75.3908H28.0131C27.9875 75.3908 27.9646 75.3806 27.9441 75.3603C27.9288 75.3451 27.9212 75.3247 27.9212 75.2993V74.598C27.9212 74.5523 27.9365 74.5142 27.9671 74.4837C28.2173 74.2397 28.4727 73.9755 28.7331 73.6909C28.9935 73.4012 29.1569 73.2208 29.2233 73.1497C29.3663 72.9819 29.5118 72.8219 29.6599 72.6694C30.1246 72.1561 30.3569 71.775 30.3569 71.526C30.3569 71.3481 30.2931 71.2007 30.1654 71.0838C30.0378 70.972 29.8718 70.9161 29.6675 70.9161C29.4633 70.9161 29.2973 70.972 29.1697 71.0838C29.042 71.2007 28.9782 71.3532 28.9782 71.5412V71.7318C28.9782 71.7572 28.968 71.7801 28.9475 71.8004C28.9322 71.8156 28.9118 71.8233 28.8863 71.8233H27.9824C27.9569 71.8233 27.9365 71.8156 27.9212 71.8004C27.9007 71.7801 27.8905 71.7572 27.8905 71.7318V71.3735C27.9058 71.0991 27.9927 70.8551 28.151 70.6417C28.3092 70.4333 28.5186 70.2733 28.779 70.1615C29.0446 70.0497 29.3407 69.9938 29.6675 69.9938C30.0301 69.9938 30.3467 70.0598 30.6173 70.1919C30.8829 70.3292 31.0897 70.5121 31.2378 70.7408C31.3807 70.9695 31.4522 71.2236 31.4522 71.5031C31.4522 71.7165 31.3986 71.9351 31.2914 72.1587C31.1841 72.3823 31.0233 72.6237 30.8088 72.8828C30.6505 73.081 30.4795 73.2767 30.2956 73.4698C30.1118 73.6629 29.8386 73.9424 29.4761 74.3083L29.3612 74.4227ZM34.0412 75.4747C33.4795 75.4747 33.0352 75.3171 32.7084 75.002C32.3816 74.692 32.2182 74.2677 32.2182 73.729V71.7165C32.2182 71.188 32.3816 70.7688 32.7084 70.4588C33.0352 70.1488 33.4795 69.9938 34.0412 69.9938C34.6029 69.9938 35.0497 70.1488 35.3816 70.4588C35.7084 70.7688 35.8718 71.188 35.8718 71.7165V73.729C35.8718 74.2677 35.7084 74.692 35.3816 75.002C35.0497 75.3171 34.6029 75.4747 34.0412 75.4747ZM34.0412 74.5523C34.271 74.5523 34.4548 74.4811 34.5927 74.3388C34.7254 74.2016 34.7918 74.0161 34.7918 73.7824V71.686C34.7918 71.4523 34.7254 71.2668 34.5927 71.1296C34.4548 70.9873 34.271 70.9161 34.0412 70.9161C33.8165 70.9161 33.6378 70.9873 33.505 71.1296C33.3671 71.2668 33.2982 71.4523 33.2982 71.686V73.7824C33.2982 74.0161 33.3671 74.2016 33.505 74.3388C33.6378 74.4811 33.8165 74.5523 34.0412 74.5523ZM38.0165 74.4227C38.0063 74.4328 38.0037 74.443 38.0088 74.4532C38.0139 74.4633 38.0241 74.4684 38.0395 74.4684H40.1152C40.1407 74.4684 40.1637 74.476 40.1841 74.4913C40.1995 74.5116 40.2071 74.5345 40.2071 74.5599V75.2993C40.2071 75.3247 40.1995 75.3451 40.1841 75.3603C40.1637 75.3806 40.1407 75.3908 40.1152 75.3908H36.6684C36.6429 75.3908 36.6224 75.3806 36.6071 75.3603C36.5867 75.3451 36.5765 75.3247 36.5765 75.2993V74.598C36.5765 74.5523 36.5918 74.5142 36.6224 74.4837C36.8727 74.2397 37.128 73.9755 37.3884 73.6909C37.6488 73.4012 37.8122 73.2208 37.8786 73.1497C38.0216 72.9819 38.1671 72.8219 38.3152 72.6694C38.7799 72.1561 39.0122 71.775 39.0122 71.526C39.0122 71.3481 38.9484 71.2007 38.8207 71.0838C38.6931 70.972 38.5271 70.9161 38.3229 70.9161C38.1186 70.9161 37.9527 70.972 37.825 71.0838C37.6973 71.2007 37.6335 71.3532 37.6335 71.5412V71.7318C37.6335 71.7572 37.6258 71.7801 37.6105 71.8004C37.5901 71.8156 37.5671 71.8233 37.5416 71.8233H36.6378C36.6122 71.8233 36.5918 71.8156 36.5765 71.8004C36.5561 71.7801 36.5458 71.7572 36.5458 71.7318V71.3735C36.5612 71.0991 36.648 70.8551 36.8063 70.6417C36.9646 70.4333 37.1765 70.2733 37.442 70.1615C37.7024 70.0497 37.9961 69.9938 38.3229 69.9938C38.6854 69.9938 39.002 70.0598 39.2727 70.1919C39.5382 70.3292 39.745 70.5121 39.8931 70.7408C40.0361 70.9695 40.1075 71.2236 40.1075 71.5031C40.1075 71.7165 40.0539 71.9351 39.9467 72.1587C39.8395 72.3823 39.6786 72.6237 39.4641 72.8828C39.3058 73.081 39.1348 73.2767 38.951 73.4698C38.7671 73.6629 38.4939 73.9424 38.1314 74.3083L38.0165 74.4227ZM44.7033 73.0658C44.7288 73.0658 44.7518 73.0734 44.7722 73.0887C44.7875 73.109 44.7952 73.1319 44.7952 73.1573V73.9272C44.7952 73.9526 44.7875 73.9755 44.7722 73.9958C44.7518 74.011 44.7288 74.0187 44.7033 74.0187H44.3739C44.3484 74.0187 44.3356 74.0314 44.3356 74.0568V75.2993C44.3356 75.3247 44.328 75.3451 44.3127 75.3603C44.2922 75.3806 44.2693 75.3908 44.2437 75.3908H43.3475C43.322 75.3908 43.3016 75.3806 43.2863 75.3603C43.2658 75.3451 43.2556 75.3247 43.2556 75.2993V74.0568C43.2556 74.0314 43.2429 74.0187 43.2173 74.0187H40.8658C40.8403 74.0187 40.8199 74.011 40.8046 73.9958C40.7841 73.9755 40.7739 73.9526 40.7739 73.9272V73.3174C40.7739 73.2869 40.7816 73.2487 40.7969 73.203L42.1756 70.1233C42.1961 70.0776 42.2318 70.0547 42.2829 70.0547H43.2403C43.2761 70.0547 43.3016 70.0649 43.3169 70.0852C43.3271 70.1005 43.3246 70.1259 43.3092 70.1615L42.0301 73.0201C42.025 73.0302 42.025 73.0404 42.0301 73.0506C42.0352 73.0607 42.0429 73.0658 42.0531 73.0658H43.2173C43.2429 73.0658 43.2556 73.0531 43.2556 73.0277V72.0824C43.2556 72.057 43.2658 72.0367 43.2863 72.0215C43.3016 72.0011 43.322 71.991 43.3475 71.991H44.2437C44.2693 71.991 44.2922 72.0011 44.3127 72.0215C44.328 72.0367 44.3356 72.057 44.3356 72.0824V73.0277C44.3356 73.0531 44.3484 73.0658 44.3739 73.0658H44.7033Z" fill="#252530"/>
</g>
<g clip-path="url(#clip1_451_11016)">
<path d="M88.7178 68.6427L119.038 83.99L148.206 68.6427V8.62793H88.7178V68.6427Z" fill="white"/>
<path d="M148.82 8.85693L88.1035 69.7116L119.575 85.2116L148.82 70.3225V8.85693Z" fill="#F2F3F2"/>
<path d="M86.7217 28.6327V69.9406L87.7963 70.4751L118.116 85.8224L119.037 86.2805L119.958 85.8224L149.204 70.4751L150.278 69.9406V6.64258H86.7217V28.6327ZM88.7174 68.7953V8.6278H148.282V68.7953L119.037 84.1426L88.7174 68.7953Z" fill="#DCDEDC"/>
<path d="M118.5 9.62041C118.807 9.62041 119.114 9.62041 119.421 9.69677L118.5 11.4529C117.118 11.3766 115.89 12.4455 115.813 13.8199C115.736 15.1943 116.811 16.416 118.193 16.4923H118.5C119.114 16.4923 119.728 16.2633 120.188 15.8815L121.186 17.5613C120.419 18.0958 119.498 18.4012 118.5 18.4012C116.043 18.4776 113.971 16.645 113.894 14.2017C113.817 11.7583 115.66 9.69677 118.116 9.62041H118.5ZM121.647 13.3618L122.798 15.2707L121.647 17.1032L120.572 15.2707H118.346L119.498 13.3618H121.647ZM119.805 12.6746C119.805 12.3692 119.881 12.0638 120.035 11.8347C120.188 11.6056 120.495 11.3766 120.726 11.2239L120.879 11.1475C121.186 10.9948 121.263 10.9184 121.263 10.7657C121.263 10.613 121.033 10.4603 120.879 10.4603C120.572 10.4603 120.342 10.613 120.188 10.9184L119.805 10.5367C119.881 10.384 120.035 10.2312 120.188 10.0785C120.419 9.92583 120.649 9.92583 120.879 9.92583C121.11 9.92583 121.417 10.0022 121.57 10.1549C121.724 10.3076 121.877 10.5367 121.877 10.7657C121.877 11.1475 121.647 11.4529 121.186 11.6056L120.956 11.7583C120.726 11.9111 120.572 11.9874 120.495 12.2165H121.877V12.751L119.805 12.6746ZM118.5 22.2189L125.792 18.0958V6.64258H111.131V18.0194L118.5 22.2189Z" fill="#FF492C"/>
<path d="M100.384 37.4901V30.7709C100.384 30.6945 100.461 30.6182 100.538 30.6182H102.303C102.38 30.6182 102.457 30.6945 102.457 30.7709V37.4901C102.457 38.4827 103.147 39.2462 104.222 39.2462C105.297 39.2462 105.988 38.5591 105.988 37.4901V30.7709C105.988 30.6945 106.064 30.6182 106.141 30.6182H107.906C107.983 30.6182 108.06 30.6945 108.06 30.7709V37.4901C108.06 39.628 106.525 41.0024 104.222 41.0024C101.919 41.0024 100.384 39.5517 100.384 37.4901ZM109.365 38.7881V38.6354C109.365 38.5591 109.442 38.4827 109.518 38.4827H111.13C111.207 38.4827 111.284 38.5591 111.284 38.6354C111.284 39.0935 111.821 39.399 112.589 39.399C113.28 39.399 113.74 39.0935 113.74 38.7118C113.74 38.1009 112.589 38.1009 111.514 37.7192C110.516 37.4137 109.442 36.8792 109.442 35.5812C109.442 34.1305 110.67 33.2142 112.589 33.2142C114.508 33.2142 115.736 34.2068 115.736 35.5812C115.736 35.6576 115.659 35.7339 115.582 35.7339H113.97C113.894 35.7339 113.817 35.6576 113.817 35.5812C113.817 35.1231 113.356 34.8177 112.589 34.8177C111.975 34.8177 111.514 35.0467 111.514 35.5049C111.514 36.1157 112.512 36.1157 113.663 36.4975C114.815 36.8029 115.966 37.3374 115.966 38.7118C115.966 40.1625 114.661 41.0024 112.742 41.0024C110.67 41.0024 109.365 40.0861 109.365 38.7881ZM123.872 37.5664C123.872 37.7192 123.796 37.7192 123.642 37.7192H119.037C118.96 37.7192 118.96 37.7192 118.96 37.7955C118.96 38.0246 119.037 38.1773 119.113 38.4063C119.344 38.9408 119.804 39.2462 120.648 39.2462C121.339 39.2462 121.8 38.9408 122.184 38.4827C122.26 38.4063 122.337 38.33 122.414 38.4827L123.489 39.5517C123.565 39.628 123.565 39.7044 123.489 39.7807C122.798 40.6206 121.723 41.0788 120.495 41.0788C118.806 41.0788 117.655 40.2389 117.118 38.8645C116.887 38.33 116.811 37.7955 116.811 37.032C116.811 36.4975 116.887 35.963 117.041 35.5049C117.501 34.1305 118.653 33.2142 120.265 33.2142C122.26 33.2142 123.489 34.5123 123.719 36.3448C123.872 36.7265 123.872 37.1083 123.872 37.5664ZM119.113 35.8103C119.037 35.963 119.037 36.1157 119.037 36.2684C119.037 36.3448 119.037 36.3448 119.113 36.3448H121.646C121.723 36.3448 121.723 36.3448 121.723 36.2684C121.723 36.1157 121.646 35.963 121.646 35.8866C121.493 35.2758 121.032 34.9704 120.341 34.9704C119.727 34.9704 119.344 35.2758 119.113 35.8103ZM129.86 33.4433C129.936 33.5196 129.936 33.596 129.936 33.6724L129.629 35.3522C129.629 35.5049 129.553 35.5049 129.399 35.4285C129.169 35.3522 128.862 35.3522 128.555 35.3522C127.864 35.4285 127.25 35.8866 127.25 36.6502V40.697C127.25 40.7733 127.173 40.8497 127.096 40.8497H125.331C125.254 40.8497 125.177 40.7733 125.177 40.697V33.5196C125.177 33.4433 125.254 33.3669 125.331 33.3669H127.096C127.173 33.3669 127.25 33.4433 127.25 33.5196V34.0541C127.25 34.1305 127.327 34.1305 127.327 34.1305C127.71 33.596 128.248 33.2142 128.938 33.2142C129.399 33.2142 129.629 33.2906 129.86 33.4433ZM130.474 38.7881V38.6354C130.474 38.5591 130.55 38.4827 130.627 38.4827H132.239C132.316 38.4827 132.393 38.5591 132.393 38.6354C132.393 39.0935 132.93 39.399 133.698 39.399C134.388 39.399 134.849 39.0935 134.849 38.7118C134.849 38.1009 133.698 38.1009 132.623 37.7192C131.625 37.4137 130.55 36.8792 130.55 35.5812C130.55 34.1305 131.779 33.2142 133.698 33.2142C135.616 33.2142 136.845 34.2068 136.845 35.5812C136.845 35.6576 136.768 35.7339 136.691 35.7339H135.079C135.002 35.7339 134.926 35.6576 134.926 35.5812C134.926 35.1231 134.465 34.8177 133.698 34.8177C133.083 34.8177 132.623 35.0467 132.623 35.5049C132.623 36.1157 133.621 36.1157 134.772 36.4975C135.924 36.8029 137.075 37.3374 137.075 38.7118C137.075 40.1625 135.77 41.0024 133.851 41.0024C131.779 41.0024 130.474 40.0861 130.474 38.7881ZM93.7061 53.0664V43.1403C93.7061 43.064 93.7828 42.9876 93.8596 42.9876H95.625C95.7018 42.9876 95.7785 43.064 95.7785 43.1403V51.3866C95.7785 51.463 95.7785 51.463 95.8553 51.463H100.691C100.768 51.463 100.845 51.5393 100.845 51.6157V53.0664C100.845 53.1428 100.768 53.2192 100.691 53.2192H93.8596C93.7828 53.2192 93.7061 53.1428 93.7061 53.0664ZM102.073 50.9285C101.919 50.4704 101.843 49.9359 101.843 49.4014C101.843 48.8669 101.919 48.2561 102.073 47.8743C102.533 46.4236 103.761 45.5837 105.45 45.5837C107.062 45.5837 108.29 46.4999 108.751 47.8743C108.904 48.3325 108.981 48.8669 108.981 49.4014C108.981 49.9359 108.904 50.4704 108.751 50.8522C108.29 52.3793 107.062 53.2955 105.45 53.2955C103.761 53.3719 102.457 52.4556 102.073 50.9285ZM106.755 50.4704C106.832 50.165 106.909 49.7832 106.909 49.4778C106.909 49.096 106.832 48.7142 106.755 48.4088C106.525 47.7216 106.064 47.3398 105.45 47.3398C104.759 47.3398 104.299 47.7216 104.145 48.4088C103.992 48.6379 103.992 49.0196 103.992 49.4778C103.992 49.8595 103.992 50.2413 104.069 50.4704C104.299 51.1576 104.759 51.5393 105.45 51.5393C106.064 51.6157 106.525 51.1576 106.755 50.4704ZM111.821 53.0664L109.442 45.8127C109.365 45.66 109.442 45.5837 109.595 45.5837H111.514C111.591 45.5837 111.668 45.66 111.744 45.7364L112.973 50.165C112.973 50.2413 113.049 50.2413 113.049 50.165L114.277 45.7364C114.277 45.66 114.354 45.5837 114.508 45.5837H116.427C116.58 45.5837 116.657 45.66 116.58 45.8127L114.201 52.9901C114.201 53.0664 114.124 53.1428 113.97 53.1428H112.051C111.898 53.2192 111.821 53.2192 111.821 53.0664ZM123.949 49.9359C123.949 50.0886 123.872 50.0886 123.719 50.0886H119.113C119.037 50.0886 119.037 50.0886 119.037 50.165C119.037 50.394 119.113 50.5467 119.19 50.7758C119.42 51.3103 119.881 51.6157 120.725 51.6157C121.416 51.6157 121.877 51.3103 122.26 50.8522C122.337 50.7758 122.414 50.6994 122.491 50.8522L123.565 51.9211C123.642 51.9975 123.642 52.0738 123.565 52.1502C122.874 52.9901 121.8 53.4482 120.572 53.4482C118.883 53.4482 117.732 52.6083 117.194 51.2339C116.964 50.6994 116.887 50.165 116.887 49.4014C116.887 48.8669 116.964 48.3325 117.118 47.8743C117.578 46.4999 118.73 45.5837 120.341 45.5837C122.337 45.5837 123.565 46.8817 123.796 48.7142C123.949 49.096 123.949 49.4778 123.949 49.9359ZM119.19 48.1797C119.113 48.3325 119.113 48.4852 119.113 48.6379C119.113 48.7142 119.113 48.7142 119.19 48.7142H121.723C121.8 48.7142 121.8 48.7142 121.8 48.6379C121.8 48.4852 121.723 48.3325 121.723 48.2561C121.57 47.6453 121.109 47.3398 120.418 47.3398C119.727 47.3398 119.344 47.6453 119.19 48.1797ZM128.248 49.8595V43.1403C128.248 43.064 128.324 42.9876 128.401 42.9876H130.167C130.243 42.9876 130.32 43.064 130.32 43.1403V49.8595C130.32 50.8522 131.011 51.6157 132.086 51.6157C133.16 51.6157 133.851 50.9285 133.851 49.8595V43.1403C133.851 43.064 133.928 42.9876 134.005 42.9876H135.77C135.847 42.9876 135.924 43.064 135.924 43.1403V49.8595C135.924 51.9975 134.388 53.3719 132.086 53.3719C129.783 53.3719 128.248 51.9211 128.248 49.8595ZM137.228 51.1576V51.0049C137.228 50.9285 137.305 50.8522 137.382 50.8522H138.994C139.071 50.8522 139.147 50.9285 139.147 51.0049C139.147 51.463 139.685 51.7684 140.452 51.7684C141.143 51.7684 141.604 51.463 141.604 51.0812C141.604 50.4704 140.452 50.4704 139.378 50.0886C138.38 49.7832 137.305 49.2487 137.305 47.9507C137.305 46.4999 138.533 45.5837 140.452 45.5837C142.371 45.5837 143.599 46.5763 143.599 47.9507C143.599 48.027 143.523 48.1034 143.446 48.1034H141.834C141.757 48.1034 141.68 48.027 141.68 47.9507C141.68 47.4926 141.22 47.1871 140.452 47.1871C139.838 47.1871 139.378 47.4162 139.378 47.8743C139.378 48.4852 140.376 48.4852 141.527 48.8669C142.678 49.1724 143.83 49.7068 143.83 51.0812C143.83 52.532 142.525 53.3719 140.606 53.3719C138.533 53.3719 137.228 52.4556 137.228 51.1576Z" fill="#252530"/>
<path d="M97.3145 62H112.666V62.6108H97.3145V62ZM124.794 62H140.146V62.6108H124.794V62Z" fill="#DCDEDC"/>
<path d="M115.045 61.3127L117.424 60.931L118.653 58.564L119.804 60.8546L122.337 61.3127L120.572 63.0689L120.955 65.5886L118.653 64.5196L116.35 65.5886L116.657 63.0689L115.045 61.3127Z" fill="#DCDEDC"/>
</g>
<g clip-path="url(#clip2_451_11016)">
<path d="M200.113 83.7049L169.439 68.2082V16.4997C171.909 16.2038 174.246 15.2051 176.178 13.6196C178.11 12.034 179.559 9.92637 180.356 7.54102H218.588C219.394 9.95338 220.865 12.0817 222.828 13.6746C224.79 15.2674 227.161 16.2582 229.662 16.5299V68.2082L200.113 83.7049Z" fill="white"/>
<path d="M169.713 68.2085L200.051 83.7053L229.287 68.1935V16.5302C226.857 16.1921 224.551 15.2347 222.585 13.7476L169.713 68.2085Z" fill="#F7F8F7"/>
<path d="M230.776 15.0819H230.679C228.074 15.0772 225.546 14.1806 223.508 12.5379C221.469 10.8951 220.039 8.60257 219.449 6.03271L179.393 6.03271C178.803 8.59127 177.381 10.8747 175.355 12.516C173.329 14.1573 170.817 15.061 168.223 15.0819V69.5429L169.28 70.0858L199.172 85.4996L200.065 85.9596L200.951 85.4845L229.741 70.0708L230.776 69.5203V16.5901V15.0819ZM200.05 83.7049L169.712 68.2081V16.4996C172.164 16.1956 174.481 15.192 176.391 13.6059C178.301 12.0197 179.727 9.91634 180.502 7.54091H218.325C219.109 9.94545 220.559 12.0711 222.503 13.6647C224.446 15.2583 226.801 16.2528 229.286 16.5298V68.2081L200.05 83.7049Z" fill="#E9E9EA"/>
<mask id="mask0_451_11016" style="mask-type:luminance" maskUnits="userSpaceOnUse" x="164" y="49" width="71" height="12">
<path d="M232.11 49.0088H166.89L164.5 54.6645L166.89 60.3203H232.11L234.5 54.6645L232.11 49.0088Z" fill="white"/>
</mask>
<g mask="url(#mask0_451_11016)">
<path d="M160.776 45.2388H238.223V64.0912H160.776V45.2388Z" fill="#9132A2"/>
</g>
<mask id="mask1_451_11016" style="mask-type:luminance" maskUnits="userSpaceOnUse" x="192" y="6" width="15" height="16">
<path d="M199.501 21.8688L206.947 17.6458V6.03271H192.054V17.6458L199.501 21.8688ZM200.99 11.9599C200.978 11.6477 201.056 11.3387 201.213 11.0701C201.417 10.7924 201.689 10.5739 202.003 10.4366L202.181 10.3612C202.487 10.2104 202.561 10.0822 202.561 9.9314C202.561 9.78058 202.397 9.62222 202.137 9.62222C201.98 9.61044 201.823 9.64935 201.689 9.73335C201.555 9.81735 201.451 9.94213 201.392 10.0898L200.99 9.69009C201.09 9.49303 201.245 9.33037 201.437 9.22255C201.638 9.10492 201.867 9.04496 202.099 9.04911C202.38 9.03978 202.657 9.1217 202.889 9.28288C202.994 9.35327 203.081 9.44975 203.139 9.56321C203.198 9.67667 203.227 9.80338 203.224 9.9314C203.224 10.3688 202.971 10.6327 202.479 10.874L202.204 11.0022C201.921 11.1455 201.779 11.2662 201.735 11.4848H203.224V12.0655H200.99V11.9599ZM202.852 12.8196L203.969 14.7048L202.852 16.5901L201.735 14.6973H199.501L200.618 12.8196H202.852ZM199.716 9.04911C200.026 9.0486 200.336 9.07891 200.64 9.1396L199.716 10.9796C199.022 10.9654 198.351 11.2306 197.85 11.7169C197.349 12.2032 197.059 12.871 197.043 13.5737C197.061 14.2751 197.352 14.9409 197.853 15.4256C198.354 15.9103 199.024 16.1744 199.716 16.1603C200.354 16.1641 200.973 15.9428 201.466 15.5344L202.479 17.2235C201.668 17.7937 200.704 18.0989 199.716 18.0983C198.504 18.1246 197.33 17.6633 196.452 16.8154C195.574 15.9674 195.064 14.8018 195.032 13.5737C195.064 12.3456 195.574 11.18 196.452 10.332C197.33 9.48406 198.504 9.02277 199.716 9.04911Z" fill="white"/>
</mask>
<g mask="url(#mask1_451_11016)">
<path d="M188.33 2.25439H210.671V25.6314H188.33V2.25439Z" fill="#9132A2"/>
</g>
<path d="M177.383 37.3955C177.874 37.3955 178.306 37.4961 178.678 37.6971C179.051 37.8982 179.339 38.1873 179.542 38.5644C179.746 38.9364 179.848 39.3637 179.848 39.8463C179.848 40.3239 179.743 40.7437 179.535 41.1057C179.321 41.4626 179.023 41.7416 178.641 41.9427C178.259 42.1438 177.817 42.2444 177.316 42.2444H175.729C175.695 42.2444 175.677 42.2645 175.677 42.3047V45.1853C175.677 45.2256 175.662 45.2582 175.633 45.2834C175.608 45.3085 175.576 45.3211 175.536 45.3211H174.233C174.193 45.3211 174.161 45.3085 174.136 45.2834C174.111 45.2582 174.099 45.2256 174.099 45.1853V37.5312C174.099 37.491 174.111 37.4583 174.136 37.4332C174.161 37.4081 174.193 37.3955 174.233 37.3955H177.383ZM177.144 40.9699C177.492 40.9699 177.767 40.8694 177.971 40.6683C178.179 40.4672 178.284 40.2058 178.284 39.884C178.284 39.5472 178.179 39.2782 177.971 39.0771C177.767 38.871 177.492 38.768 177.144 38.768H175.729C175.695 38.768 175.677 38.7881 175.677 38.8283V40.9096C175.677 40.9498 175.695 40.9699 175.729 40.9699H177.144ZM185.485 41.8145C185.525 42.1011 185.537 42.4203 185.522 42.7722C185.517 42.8677 185.47 42.9155 185.381 42.9155H181.933C181.888 42.9155 181.871 42.9331 181.881 42.9683C181.905 43.1191 181.948 43.2699 182.007 43.4208C182.201 43.8431 182.595 44.0542 183.191 44.0542C183.668 44.0492 184.043 43.8531 184.316 43.466C184.35 43.4208 184.385 43.3981 184.42 43.3981C184.44 43.3981 184.465 43.4132 184.494 43.4434L185.299 44.2427C185.338 44.2829 185.358 44.3181 185.358 44.3483C185.358 44.3634 185.343 44.3935 185.314 44.4388C185.065 44.7505 184.75 44.9893 184.368 45.1552C183.976 45.3261 183.549 45.4116 183.087 45.4116C182.451 45.4116 181.91 45.2658 181.464 44.9742C181.022 44.6776 180.704 44.2653 180.51 43.7375C180.351 43.3604 180.272 42.8677 180.272 42.2594C180.272 41.8422 180.329 41.4752 180.443 41.1585C180.617 40.6256 180.917 40.2008 181.344 39.884C181.771 39.5673 182.278 39.409 182.864 39.409C183.608 39.409 184.206 39.6276 184.658 40.065C185.11 40.5024 185.386 41.0856 185.485 41.8145ZM182.878 40.789C182.407 40.789 182.097 41.0102 181.948 41.4526C181.918 41.5531 181.893 41.6738 181.873 41.8145C181.873 41.8497 181.893 41.8673 181.933 41.8673H183.861C183.906 41.8673 183.921 41.8497 183.906 41.8145C183.866 41.5984 183.847 41.4928 183.847 41.4978C183.782 41.2716 183.665 41.0956 183.497 40.9699C183.333 40.8493 183.127 40.789 182.878 40.789ZM189.357 39.4316C189.625 39.4316 189.839 39.4844 189.998 39.5899C190.052 39.6201 190.072 39.6754 190.057 39.7558L189.826 41.0453C189.821 41.1358 189.769 41.1635 189.67 41.1283C189.556 41.0881 189.427 41.068 189.283 41.068C189.223 41.068 189.139 41.0755 189.029 41.0906C188.766 41.1157 188.54 41.2163 188.352 41.3922C188.168 41.5682 188.076 41.8045 188.076 42.1011V45.1853C188.076 45.2256 188.061 45.2582 188.032 45.2834C188.007 45.3085 187.977 45.3211 187.942 45.3211H186.632C186.597 45.3211 186.565 45.3085 186.535 45.2834C186.51 45.2582 186.498 45.2256 186.498 45.1853V39.6427C186.498 39.6075 186.51 39.5749 186.535 39.5447C186.565 39.5196 186.597 39.507 186.632 39.507H187.942C187.977 39.507 188.007 39.5196 188.032 39.5447C188.061 39.5749 188.076 39.6075 188.076 39.6427V40.0726C188.076 40.0927 188.084 40.1077 188.099 40.1178C188.109 40.1279 188.118 40.1228 188.128 40.1027C188.436 39.6553 188.846 39.4316 189.357 39.4316ZM194.116 39.4994C194.155 39.4994 194.188 39.512 194.212 39.5371C194.237 39.5623 194.25 39.595 194.25 39.6352V40.706C194.25 40.7462 194.237 40.7789 194.212 40.804C194.188 40.8292 194.155 40.8417 194.116 40.8417H193.036C192.996 40.8417 192.976 40.8593 192.976 40.8945V45.1853C192.976 45.2256 192.964 45.2582 192.939 45.2834C192.914 45.3085 192.882 45.3211 192.842 45.3211H191.539C191.499 45.3211 191.467 45.3085 191.442 45.2834C191.417 45.2582 191.405 45.2256 191.405 45.1853V40.8945C191.405 40.8593 191.385 40.8417 191.345 40.8417H190.69C190.65 40.8417 190.618 40.8292 190.593 40.804C190.568 40.7789 190.556 40.7462 190.556 40.706V39.6352C190.556 39.595 190.568 39.5623 190.593 39.5371C190.618 39.512 190.65 39.4994 190.69 39.4994H191.345C191.385 39.4994 191.405 39.4793 191.405 39.4391V39.1903C191.405 38.7227 191.475 38.3582 191.614 38.0968C191.757 37.8404 191.986 37.6569 192.299 37.5463C192.616 37.4357 193.056 37.388 193.617 37.403H194.041C194.076 37.403 194.106 37.4156 194.131 37.4408C194.16 37.4709 194.175 37.5036 194.175 37.5388V38.4512C194.175 38.4915 194.16 38.5241 194.131 38.5493C194.106 38.5794 194.076 38.5945 194.041 38.5945H193.669C193.411 38.5996 193.229 38.6523 193.125 38.7529C193.026 38.8585 192.976 39.047 192.976 39.3185V39.4391C192.976 39.4793 192.996 39.4994 193.036 39.4994H194.116ZM197.355 45.4116C196.729 45.4116 196.193 45.2457 195.747 44.9139C195.3 44.5821 194.994 44.1296 194.831 43.5565C194.726 43.2046 194.674 42.82 194.674 42.4027C194.674 41.9603 194.726 41.5606 194.831 41.2037C195.004 40.6457 195.315 40.2083 195.761 39.8916C196.208 39.5749 196.744 39.4165 197.37 39.4165C197.976 39.4165 198.497 39.5723 198.934 39.884C199.361 40.2008 199.664 40.6381 199.842 41.1962C199.966 41.5732 200.028 41.9679 200.028 42.3801C200.028 42.7873 199.976 43.1694 199.872 43.5263C199.708 44.1145 199.403 44.5745 198.956 44.9063C198.514 45.2432 197.981 45.4116 197.355 45.4116ZM197.355 44.0467C197.598 44.0467 197.807 43.9712 197.981 43.8204C198.154 43.6696 198.278 43.461 198.353 43.1945C198.407 42.9532 198.435 42.6893 198.435 42.4027C198.435 42.086 198.407 41.8196 198.353 41.6034C198.268 41.347 198.142 41.1459 197.973 41.0001C197.799 40.8593 197.588 40.789 197.34 40.789C197.092 40.789 196.883 40.8593 196.715 41.0001C196.546 41.1459 196.424 41.347 196.35 41.6034C196.29 41.7793 196.26 42.0458 196.26 42.4027C196.26 42.7446 196.288 43.0085 196.342 43.1945C196.417 43.461 196.541 43.6696 196.715 43.8204C196.888 43.9712 197.102 44.0467 197.355 44.0467ZM203.901 39.4316C204.169 39.4316 204.382 39.4844 204.541 39.5899C204.601 39.6201 204.621 39.6754 204.601 39.7558L204.37 41.0453C204.365 41.1358 204.313 41.1635 204.214 41.1283C204.099 41.0881 203.97 41.068 203.826 41.068C203.767 41.068 203.685 41.0755 203.581 41.0906C203.312 41.1157 203.084 41.2163 202.895 41.3922C202.712 41.5682 202.62 41.8045 202.62 42.1011V45.1853C202.62 45.2256 202.605 45.2582 202.575 45.2834C202.55 45.3085 202.518 45.3211 202.478 45.3211H201.175C201.14 45.3211 201.108 45.3085 201.078 45.2834C201.054 45.2582 201.041 45.2256 201.041 45.1853V39.6427C201.041 39.6075 201.054 39.5749 201.078 39.5447C201.108 39.5196 201.14 39.507 201.175 39.507H202.478C202.518 39.507 202.55 39.5196 202.575 39.5447C202.605 39.5749 202.62 39.6075 202.62 39.6427V40.0726C202.62 40.0927 202.625 40.1077 202.635 40.1178C202.655 40.1279 202.667 40.1228 202.672 40.1027C202.98 39.6553 203.389 39.4316 203.901 39.4316ZM211.683 39.4165C212.264 39.4165 212.718 39.5924 213.045 39.9444C213.373 40.3013 213.537 40.8015 213.537 41.445V45.1853C213.537 45.2256 213.525 45.2582 213.5 45.2834C213.475 45.3085 213.445 45.3211 213.41 45.3211H212.1C212.065 45.3211 212.033 45.3085 212.003 45.2834C211.978 45.2582 211.966 45.2256 211.966 45.1853V41.7919C211.966 41.4852 211.889 41.2414 211.735 41.0604C211.576 40.8794 211.365 40.789 211.102 40.789C210.844 40.789 210.633 40.8794 210.469 41.0604C210.305 41.2414 210.223 41.4827 210.223 41.7844V45.1853C210.223 45.2256 210.211 45.2582 210.186 45.2834C210.156 45.3085 210.124 45.3211 210.089 45.3211H208.793C208.754 45.3211 208.721 45.3085 208.697 45.2834C208.672 45.2582 208.659 45.2256 208.659 45.1853V41.7919C208.659 41.4903 208.577 41.2464 208.414 41.0604C208.25 40.8794 208.036 40.789 207.773 40.789C207.54 40.789 207.341 40.8593 207.177 41.0001C207.018 41.1459 206.924 41.347 206.894 41.6034V45.1853C206.894 45.2256 206.882 45.2582 206.857 45.2834C206.827 45.3085 206.795 45.3211 206.76 45.3211H205.457C205.417 45.3211 205.385 45.3085 205.36 45.2834C205.336 45.2582 205.323 45.2256 205.323 45.1853V39.6427C205.323 39.6075 205.336 39.5749 205.36 39.5447C205.385 39.5196 205.417 39.507 205.457 39.507H206.76C206.795 39.507 206.827 39.5196 206.857 39.5447C206.882 39.5749 206.894 39.6075 206.894 39.6427V40.0876C206.894 40.1077 206.902 40.1228 206.917 40.1329C206.932 40.1379 206.947 40.1279 206.961 40.1027C207.269 39.6452 207.743 39.4165 208.384 39.4165C208.756 39.4165 209.081 39.4969 209.359 39.6578C209.637 39.8137 209.851 40.0399 210 40.3365C210.02 40.3817 210.047 40.3817 210.082 40.3365C210.24 40.0248 210.461 39.7935 210.744 39.6427C211.022 39.4919 211.335 39.4165 211.683 39.4165ZM219.695 41.8145C219.74 42.1011 219.755 42.4203 219.74 42.7722C219.73 42.8677 219.681 42.9155 219.591 42.9155H216.143C216.099 42.9155 216.084 42.9331 216.099 42.9683C216.118 43.1191 216.158 43.2699 216.218 43.4208C216.411 43.8431 216.806 44.0542 217.402 44.0542C217.878 44.0492 218.256 43.8531 218.534 43.466C218.564 43.4208 218.596 43.3981 218.631 43.3981C218.655 43.3981 218.683 43.4132 218.712 43.4434L219.517 44.2427C219.551 44.2829 219.569 44.3181 219.569 44.3483C219.569 44.3634 219.554 44.3935 219.524 44.4388C219.281 44.7505 218.966 44.9893 218.578 45.1552C218.191 45.3261 217.767 45.4116 217.305 45.4116C216.665 45.4116 216.123 45.2658 215.682 44.9742C215.235 44.6776 214.915 44.2653 214.721 43.7375C214.567 43.3604 214.49 42.8677 214.49 42.2594C214.49 41.8422 214.545 41.4752 214.654 41.1585C214.828 40.6256 215.128 40.2008 215.555 39.884C215.982 39.5673 216.491 39.409 217.082 39.409C217.826 39.409 218.425 39.6276 218.876 40.065C219.328 40.5024 219.601 41.0856 219.695 41.8145ZM217.089 40.789C216.622 40.789 216.315 41.0102 216.166 41.4526C216.136 41.5531 216.109 41.6738 216.084 41.8145C216.084 41.8497 216.104 41.8673 216.143 41.8673H218.072C218.117 41.8673 218.132 41.8497 218.117 41.8145C218.082 41.5984 218.065 41.4928 218.065 41.4978C217.995 41.2716 217.878 41.0956 217.715 40.9699C217.546 40.8493 217.337 40.789 217.089 40.789ZM223.568 39.4316C223.836 39.4316 224.049 39.4844 224.208 39.5899C224.268 39.6201 224.29 39.6754 224.275 39.7558L224.044 41.0453C224.034 41.1358 223.98 41.1635 223.881 41.1283C223.771 41.0881 223.642 41.068 223.493 41.068C223.434 41.068 223.352 41.0755 223.248 41.0906C222.979 41.1157 222.751 41.2163 222.562 41.3922C222.379 41.5682 222.287 41.8045 222.287 42.1011V45.1853C222.287 45.2256 222.275 45.2582 222.25 45.2834C222.22 45.3085 222.188 45.3211 222.153 45.3211H220.842C220.808 45.3211 220.778 45.3085 220.753 45.2834C220.723 45.2582 220.708 45.2256 220.708 45.1853V39.6427C220.708 39.6075 220.723 39.5749 220.753 39.5447C220.778 39.5196 220.808 39.507 220.842 39.507H222.153C222.188 39.507 222.22 39.5196 222.25 39.5447C222.275 39.5749 222.287 39.6075 222.287 39.6427V40.0726C222.287 40.0927 222.294 40.1077 222.309 40.1178C222.324 40.1279 222.337 40.1228 222.347 40.1027C222.649 39.6553 223.056 39.4316 223.568 39.4316Z" fill="#252530"/>
<path d="M192.842 26.228C192.842 26.1928 192.855 26.1601 192.88 26.13C192.905 26.1048 192.934 26.0923 192.969 26.0923H194.28C194.314 26.0923 194.347 26.1048 194.376 26.13C194.401 26.1601 194.414 26.1928 194.414 26.228V33.8746C194.414 33.9148 194.401 33.9475 194.376 33.9726C194.347 33.9977 194.314 34.0103 194.28 34.0103H192.969C192.934 34.0103 192.905 33.9977 192.88 33.9726C192.855 33.9475 192.842 33.9148 192.842 33.8746V30.7526C192.842 30.7174 192.823 30.6998 192.783 30.6998H190.311C190.276 30.6998 190.258 30.7174 190.258 30.7526V33.8746C190.258 33.9148 190.246 33.9475 190.221 33.9726C190.191 33.9977 190.159 34.0103 190.124 34.0103H188.814C188.779 34.0103 188.749 33.9977 188.724 33.9726C188.695 33.9475 188.68 33.9148 188.68 33.8746V26.228C188.68 26.1928 188.695 26.1601 188.724 26.13C188.749 26.1048 188.779 26.0923 188.814 26.0923H190.124C190.159 26.0923 190.191 26.1048 190.221 26.13C190.246 26.1601 190.258 26.1928 190.258 26.228V29.267C190.258 29.3072 190.276 29.3274 190.311 29.3274H192.783C192.823 29.3274 192.842 29.3072 192.842 29.267V26.228ZM196.447 27.5401C196.194 27.5401 195.983 27.4547 195.814 27.2837C195.645 27.1178 195.561 26.9067 195.561 26.6503C195.561 26.3839 195.642 26.1677 195.806 26.0018C195.97 25.8359 196.184 25.7529 196.447 25.7529C196.71 25.7529 196.923 25.8359 197.087 26.0018C197.251 26.1677 197.333 26.3839 197.333 26.6503C197.333 26.9067 197.248 27.1178 197.08 27.2837C196.911 27.4547 196.7 27.5401 196.447 27.5401ZM195.776 34.0103C195.742 34.0103 195.709 33.9977 195.68 33.9726C195.655 33.9475 195.642 33.9148 195.642 33.8746V28.3244C195.642 28.2842 195.655 28.2515 195.68 28.2264C195.709 28.2012 195.742 28.1887 195.776 28.1887H197.087C197.122 28.1887 197.152 28.2012 197.176 28.2264C197.206 28.2515 197.221 28.2842 197.221 28.3244V33.8746C197.221 33.9148 197.206 33.9475 197.176 33.9726C197.152 33.9977 197.122 34.0103 197.087 34.0103H195.776ZM201.95 28.3319C201.95 28.2968 201.965 28.2641 201.995 28.2339C202.019 28.2088 202.049 28.1962 202.084 28.1962H203.395C203.429 28.1962 203.462 28.2088 203.491 28.2339C203.516 28.2641 203.529 28.2968 203.529 28.3319V33.49C203.529 34.4753 203.248 35.1792 202.687 35.6015C202.126 36.0288 201.401 36.2424 200.513 36.2424C200.25 36.2424 199.959 36.2223 199.641 36.1821C199.567 36.1721 199.53 36.1243 199.53 36.0388L199.574 34.87C199.574 34.7694 199.626 34.7267 199.731 34.7418C199.999 34.787 200.245 34.8097 200.468 34.8097C200.945 34.8097 201.312 34.7066 201.57 34.5005C201.823 34.2843 201.95 33.945 201.95 33.4824C201.95 33.4573 201.942 33.4422 201.928 33.4372C201.913 33.4322 201.898 33.4397 201.883 33.4598C201.6 33.7665 201.188 33.9198 200.647 33.9198C200.16 33.9198 199.716 33.8017 199.314 33.5654C198.907 33.3291 198.616 32.947 198.442 32.4192C198.333 32.0723 198.279 31.6223 198.279 31.0693C198.279 30.4811 198.346 30.0035 198.48 29.6365C198.634 29.174 198.897 28.8045 199.269 28.528C199.641 28.2465 200.076 28.1057 200.572 28.1057C201.143 28.1057 201.58 28.2792 201.883 28.626C201.898 28.6411 201.913 28.6462 201.928 28.6411C201.942 28.6361 201.95 28.6235 201.95 28.6034V28.3319ZM201.861 31.9818C201.92 31.7606 201.95 31.4514 201.95 31.0542C201.95 30.823 201.942 30.6445 201.928 30.5188C201.913 30.3881 201.888 30.265 201.853 30.1493C201.784 29.9482 201.672 29.7848 201.518 29.6592C201.364 29.5385 201.17 29.4782 200.937 29.4782C200.714 29.4782 200.525 29.5385 200.371 29.6592C200.212 29.7848 200.096 29.9482 200.021 30.1493C199.917 30.3756 199.865 30.6822 199.865 31.0693C199.865 31.4916 199.909 31.7933 199.999 31.9742C200.063 32.1804 200.18 32.3437 200.349 32.4644C200.518 32.5901 200.716 32.6529 200.945 32.6529C201.183 32.6529 201.381 32.5901 201.54 32.4644C201.694 32.3437 201.801 32.1829 201.861 31.9818ZM207.654 28.1057C208.25 28.1057 208.729 28.2917 209.091 28.6637C209.454 29.0307 209.635 29.531 209.635 30.1644V33.8746C209.635 33.9148 209.623 33.9475 209.598 33.9726C209.573 33.9977 209.543 34.0103 209.508 34.0103H208.198C208.163 34.0103 208.131 33.9977 208.101 33.9726C208.076 33.9475 208.064 33.9148 208.064 33.8746V30.4887C208.064 30.1921 207.979 29.9482 207.811 29.7572C207.647 29.5712 207.426 29.4782 207.148 29.4782C206.875 29.4782 206.654 29.5712 206.485 29.7572C206.316 29.9482 206.232 30.1921 206.232 30.4887V33.8746C206.232 33.9148 206.219 33.9475 206.195 33.9726C206.17 33.9977 206.137 34.0103 206.098 34.0103H204.795C204.755 34.0103 204.723 33.9977 204.698 33.9726C204.673 33.9475 204.661 33.9148 204.661 33.8746V26.228C204.661 26.1928 204.673 26.1601 204.698 26.13C204.723 26.1048 204.755 26.0923 204.795 26.0923H206.098C206.137 26.0923 206.17 26.1048 206.195 26.13C206.219 26.1601 206.232 26.1928 206.232 26.228V28.7316C206.232 28.7517 206.239 28.7668 206.254 28.7769C206.269 28.7819 206.279 28.7769 206.284 28.7618C206.592 28.3244 207.048 28.1057 207.654 28.1057Z" fill="#252530"/>
<path d="M193.664 52.9234C193.664 52.9485 193.656 52.9686 193.641 52.9837C193.621 53.0038 193.599 53.0139 193.574 53.0139H191.035C191.01 53.0139 190.998 53.0264 190.998 53.0516V54.4617C190.998 54.4869 191.01 54.4994 191.035 54.4994H192.74C192.765 54.4994 192.787 54.507 192.807 54.5221C192.822 54.5422 192.83 54.5648 192.83 54.5899V55.163C192.83 55.1882 192.822 55.2108 192.807 55.2309C192.787 55.246 192.765 55.2535 192.74 55.2535H191.035C191.01 55.2535 190.998 55.2661 190.998 55.2912V56.7467C190.998 56.7718 191.01 56.7844 191.035 56.7844H193.574C193.599 56.7844 193.621 56.7944 193.641 56.8145C193.656 56.8296 193.664 56.8497 193.664 56.8748V57.448C193.664 57.4731 193.656 57.4932 193.641 57.5083C193.621 57.5284 193.599 57.5385 193.574 57.5385H190.223C190.198 57.5385 190.178 57.5284 190.164 57.5083C190.144 57.4932 190.134 57.4731 190.134 57.448V52.3503C190.134 52.3251 190.144 52.305 190.164 52.2899C190.178 52.2698 190.198 52.2598 190.223 52.2598H193.574C193.599 52.2598 193.621 52.2698 193.641 52.2899C193.656 52.305 193.664 52.3251 193.664 52.3503V52.9234ZM197.901 52.3201C197.926 52.2799 197.96 52.2598 198.005 52.2598H198.69C198.715 52.2598 198.735 52.2698 198.75 52.2899C198.77 52.305 198.78 52.3251 198.78 52.3503V57.448C198.78 57.4731 198.77 57.4932 198.75 57.5083C198.735 57.5284 198.715 57.5385 198.69 57.5385H198.005C197.98 57.5385 197.958 57.5284 197.938 57.5083C197.923 57.4932 197.916 57.4731 197.916 57.448V53.8509C197.916 53.8358 197.911 53.8258 197.901 53.8207C197.886 53.8157 197.876 53.8207 197.871 53.8358L196.94 55.2837C196.915 55.3239 196.881 55.344 196.836 55.344H196.493C196.449 55.344 196.414 55.3239 196.389 55.2837L195.451 53.8434C195.446 53.8283 195.436 53.8233 195.421 53.8283C195.411 53.8333 195.406 53.8434 195.406 53.8585V57.448C195.406 57.4731 195.399 57.4932 195.384 57.5083C195.364 57.5284 195.342 57.5385 195.317 57.5385H194.632C194.607 57.5385 194.584 57.5284 194.565 57.5083C194.55 57.4932 194.542 57.4731 194.542 57.448V52.3503C194.542 52.3251 194.55 52.305 194.565 52.2899C194.584 52.2698 194.607 52.2598 194.632 52.2598H195.317C195.361 52.2598 195.396 52.2799 195.421 52.3201L196.635 54.1827C196.645 54.1928 196.655 54.1978 196.665 54.1978C196.675 54.1978 196.682 54.1928 196.687 54.1827L197.901 52.3201ZM203.397 52.9234C203.397 52.9485 203.389 52.9686 203.374 52.9837C203.354 53.0038 203.332 53.0139 203.307 53.0139H200.768C200.743 53.0139 200.731 53.0264 200.731 53.0516V54.4617C200.731 54.4869 200.743 54.4994 200.768 54.4994H202.473C202.498 54.4994 202.52 54.507 202.54 54.5221C202.555 54.5422 202.563 54.5648 202.563 54.5899V55.163C202.563 55.1882 202.555 55.2108 202.54 55.2309C202.52 55.246 202.498 55.2535 202.473 55.2535H200.768C200.743 55.2535 200.731 55.2661 200.731 55.2912V56.7467C200.731 56.7718 200.743 56.7844 200.768 56.7844H203.307C203.332 56.7844 203.354 56.7944 203.374 56.8145C203.389 56.8296 203.397 56.8497 203.397 56.8748V57.448C203.397 57.4731 203.389 57.4932 203.374 57.5083C203.354 57.5284 203.332 57.5385 203.307 57.5385H199.956C199.931 57.5385 199.911 57.5284 199.897 57.5083C199.877 57.4932 199.867 57.4731 199.867 57.448V52.3503C199.867 52.3251 199.877 52.305 199.897 52.2899C199.911 52.2698 199.931 52.2598 199.956 52.2598H203.307C203.332 52.2598 203.354 52.2698 203.374 52.2899C203.389 52.305 203.397 52.3251 203.397 52.3503V52.9234ZM207.507 57.5385C207.458 57.5385 207.425 57.5133 207.41 57.463L207.165 56.6562C207.155 56.636 207.142 56.626 207.127 56.626H205.161C205.147 56.626 205.134 56.636 205.124 56.6562L204.878 57.463C204.864 57.5133 204.831 57.5385 204.782 57.5385H204.037C204.007 57.5385 203.985 57.5284 203.97 57.5083C203.955 57.4932 203.953 57.4681 203.963 57.4329L205.578 52.3352C205.593 52.2849 205.626 52.2598 205.675 52.2598H206.606C206.656 52.2598 206.688 52.2849 206.703 52.3352L208.326 57.4329C208.331 57.4429 208.334 57.4555 208.334 57.4706C208.334 57.5158 208.306 57.5385 208.252 57.5385H207.507ZM205.355 55.8945C205.35 55.9247 205.36 55.9398 205.385 55.9398H206.897C206.926 55.9398 206.936 55.9247 206.926 55.8945L206.159 53.3683C206.154 53.3482 206.147 53.3381 206.137 53.3381C206.127 53.3381 206.12 53.3482 206.115 53.3683L205.355 55.8945Z" fill="white"/>
<path d="M187.705 68.1708C187.651 68.1708 187.616 68.1456 187.601 68.0954L186.283 62.9901L186.275 62.96C186.275 62.9147 186.303 62.8921 186.357 62.8921H187.281C187.33 62.8921 187.363 62.9172 187.378 62.9675L188.085 66.0367C188.09 66.0568 188.097 66.0668 188.107 66.0668C188.117 66.0668 188.125 66.0568 188.13 66.0367L188.815 62.975C188.83 62.9197 188.862 62.8921 188.912 62.8921H189.813C189.867 62.8921 189.902 62.9172 189.917 62.9675L190.662 66.0367C190.667 66.0518 190.674 66.0618 190.684 66.0668C190.694 66.0668 190.701 66.0568 190.706 66.0367L191.391 62.975C191.406 62.9197 191.439 62.8921 191.488 62.8921H192.367C192.436 62.8921 192.464 62.9248 192.449 62.9901L191.228 68.0954C191.213 68.1456 191.178 68.1708 191.123 68.1708H190.237C190.187 68.1708 190.155 68.1456 190.14 68.0954L189.381 64.8301C189.376 64.81 189.368 64.8 189.358 64.8C189.348 64.8 189.341 64.81 189.336 64.8301L188.629 68.0878C188.619 68.1431 188.586 68.1708 188.532 68.1708H187.705ZM193.171 68.1708C193.146 68.1708 193.124 68.1607 193.104 68.1406C193.089 68.1255 193.082 68.1054 193.082 68.0803V62.9826C193.082 62.9574 193.089 62.9373 193.104 62.9223C193.124 62.9021 193.146 62.8921 193.171 62.8921H194.042C194.067 62.8921 194.087 62.9021 194.102 62.9223C194.122 62.9373 194.132 62.9574 194.132 62.9826V68.0803C194.132 68.1054 194.122 68.1255 194.102 68.1406C194.087 68.1607 194.067 68.1708 194.042 68.1708H193.171ZM198.034 62.9826C198.034 62.9574 198.041 62.9373 198.056 62.9223C198.076 62.9021 198.098 62.8921 198.123 62.8921H198.995C199.019 62.8921 199.039 62.9021 199.054 62.9223C199.074 62.9373 199.084 62.9574 199.084 62.9826V68.0803C199.084 68.1054 199.074 68.1255 199.054 68.1406C199.039 68.1607 199.019 68.1708 198.995 68.1708H198.153C198.103 68.1708 198.069 68.1507 198.049 68.1105L196.12 64.8829C196.11 64.8678 196.1 64.8628 196.09 64.8678C196.08 64.8678 196.075 64.8779 196.075 64.898L196.09 68.0803C196.09 68.1054 196.08 68.1255 196.06 68.1406C196.046 68.1607 196.026 68.1708 196.001 68.1708H195.13C195.105 68.1708 195.082 68.1607 195.063 68.1406C195.048 68.1255 195.04 68.1054 195.04 68.0803V62.9826C195.04 62.9574 195.048 62.9373 195.063 62.9223C195.082 62.9021 195.105 62.8921 195.13 62.8921H195.971C196.021 62.8921 196.056 62.9122 196.075 62.9524L197.997 66.1649C198.007 66.18 198.017 66.185 198.026 66.18C198.036 66.18 198.041 66.1699 198.041 66.1498L198.034 62.9826ZM203.589 62.8921C203.614 62.8921 203.634 62.9021 203.649 62.9223C203.669 62.9373 203.679 62.9574 203.679 62.9826V63.7216C203.679 63.7467 203.669 63.7668 203.649 63.7819C203.634 63.802 203.614 63.8121 203.589 63.8121H202.256C202.231 63.8121 202.219 63.8247 202.219 63.8498V68.0803C202.219 68.1054 202.209 68.1255 202.189 68.1406C202.174 68.1607 202.154 68.1708 202.13 68.1708H201.258C201.234 68.1708 201.211 68.1607 201.191 68.1406C201.176 68.1255 201.169 68.1054 201.169 68.0803V63.8498C201.169 63.8247 201.157 63.8121 201.132 63.8121H199.836C199.811 63.8121 199.789 63.802 199.769 63.7819C199.754 63.7668 199.747 63.7467 199.747 63.7216V62.9826C199.747 62.9574 199.754 62.9373 199.769 62.9223C199.789 62.9021 199.811 62.8921 199.836 62.8921H203.589ZM207.968 63.7141C207.968 63.7392 207.96 63.7593 207.946 63.7744C207.926 63.7945 207.903 63.8045 207.879 63.8045H205.436C205.411 63.8045 205.399 63.8171 205.399 63.8423V65.0111C205.399 65.0362 205.411 65.0488 205.436 65.0488H207.037C207.062 65.0488 207.082 65.0564 207.097 65.0714C207.117 65.0915 207.126 65.1142 207.126 65.1393V65.8708C207.126 65.8959 207.117 65.9185 207.097 65.9386C207.082 65.9537 207.062 65.9613 207.037 65.9613H205.436C205.411 65.9613 205.399 65.9738 205.399 65.999V67.2206C205.399 67.2458 205.411 67.2583 205.436 67.2583H207.879C207.903 67.2583 207.926 67.2659 207.946 67.2809C207.96 67.3011 207.968 67.3237 207.968 67.3488V68.0803C207.968 68.1054 207.96 68.1255 207.946 68.1406C207.926 68.1607 207.903 68.1708 207.879 68.1708H204.438C204.413 68.1708 204.391 68.1607 204.371 68.1406C204.356 68.1255 204.349 68.1054 204.349 68.0803V62.9826C204.349 62.9574 204.356 62.9373 204.371 62.9223C204.391 62.9021 204.413 62.8921 204.438 62.8921H207.879C207.903 62.8921 207.926 62.9021 207.946 62.9223C207.96 62.9373 207.968 62.9574 207.968 62.9826V63.7141ZM211.557 68.1708C211.508 68.1708 211.473 68.1482 211.453 68.1029L210.522 66.0141C210.512 65.9939 210.497 65.9839 210.478 65.9839H209.785C209.76 65.9839 209.748 65.9965 209.748 66.0216V68.0803C209.748 68.1054 209.738 68.1255 209.718 68.1406C209.703 68.1607 209.683 68.1708 209.658 68.1708H208.787C208.762 68.1708 208.74 68.1607 208.72 68.1406C208.705 68.1255 208.698 68.1054 208.698 68.0803V62.9826C208.698 62.9574 208.705 62.9373 208.72 62.9223C208.74 62.9021 208.762 62.8921 208.787 62.8921H210.917C211.235 62.8921 211.513 62.9574 211.751 63.0882C211.994 63.2189 212.18 63.4049 212.309 63.6462C212.443 63.8875 212.51 64.1665 212.51 64.4832C212.51 64.8251 212.426 65.1167 212.257 65.358C212.089 65.6043 211.853 65.7778 211.55 65.8783C211.525 65.8884 211.518 65.906 211.528 65.9311L212.54 68.0652C212.55 68.0853 212.555 68.1004 212.555 68.1105C212.555 68.1507 212.528 68.1708 212.473 68.1708H211.557ZM209.785 63.8045C209.76 63.8045 209.748 63.8171 209.748 63.8423V65.1318C209.748 65.1569 209.76 65.1695 209.785 65.1695H210.76C210.969 65.1695 211.138 65.1066 211.267 64.9809C211.401 64.8553 211.468 64.6919 211.468 64.4908C211.468 64.2897 211.401 64.1238 211.267 63.9931C211.138 63.8674 210.969 63.8045 210.76 63.8045H209.785Z" fill="#252530"/>
<path d="M192.559 74.3017C192.549 74.3118 192.546 74.3218 192.551 74.3319C192.556 74.3419 192.566 74.347 192.581 74.347H194.599C194.624 74.347 194.646 74.3545 194.666 74.3696C194.681 74.3897 194.688 74.4123 194.688 74.4375V75.1689C194.688 75.1941 194.681 75.2142 194.666 75.2293C194.646 75.2494 194.624 75.2594 194.599 75.2594H191.248C191.223 75.2594 191.201 75.2494 191.181 75.2293C191.166 75.2142 191.159 75.1941 191.159 75.1689V74.4752C191.159 74.4299 191.174 74.3922 191.203 74.3621C191.447 74.1207 191.695 73.8593 191.948 73.5778C192.201 73.2912 192.36 73.1128 192.425 73.0424C192.564 72.8765 192.705 72.7181 192.849 72.5673C193.301 72.0595 193.527 71.6825 193.527 71.4361C193.527 71.2602 193.465 71.1144 193.341 70.9988C193.216 70.8882 193.055 70.8329 192.857 70.8329C192.658 70.8329 192.497 70.8882 192.373 70.9988C192.248 71.1144 192.186 71.2652 192.186 71.4512V71.6398C192.186 71.6649 192.176 71.6875 192.157 71.7076C192.142 71.7227 192.122 71.7302 192.097 71.7302H191.218C191.193 71.7302 191.174 71.7227 191.159 71.7076C191.139 71.6875 191.129 71.6649 191.129 71.6398V71.2853C191.144 71.0139 191.228 70.7725 191.382 70.5614C191.536 70.3553 191.74 70.1969 191.993 70.0863C192.251 69.9757 192.539 69.9204 192.857 69.9204C193.209 69.9204 193.517 69.9858 193.78 70.1165C194.038 70.2522 194.239 70.4332 194.383 70.6594C194.522 70.8857 194.592 71.137 194.592 71.4135C194.592 71.6247 194.54 71.8408 194.435 72.0621C194.331 72.2833 194.175 72.5221 193.966 72.7784C193.812 72.9745 193.646 73.1681 193.467 73.3591C193.288 73.5501 193.023 73.8266 192.67 74.1886L192.559 74.3017ZM197.109 75.3424C196.563 75.3424 196.131 75.1865 195.813 74.8748C195.495 74.5682 195.336 74.1484 195.336 73.6155V71.6247C195.336 71.1018 195.495 70.6871 195.813 70.3804C196.131 70.0737 196.563 69.9204 197.109 69.9204C197.655 69.9204 198.089 70.0737 198.412 70.3804C198.73 70.6871 198.888 71.1018 198.888 71.6247V73.6155C198.888 74.1484 198.73 74.5682 198.412 74.8748C198.089 75.1865 197.655 75.3424 197.109 75.3424ZM197.109 74.4299C197.332 74.4299 197.511 74.3595 197.645 74.2188C197.774 74.083 197.838 73.8995 197.838 73.6683V71.5945C197.838 71.3633 197.774 71.1798 197.645 71.044C197.511 70.9033 197.332 70.8329 197.109 70.8329C196.89 70.8329 196.716 70.9033 196.587 71.044C196.453 71.1798 196.386 71.3633 196.386 71.5945V73.6683C196.386 73.8995 196.453 74.083 196.587 74.2188C196.716 74.3595 196.89 74.4299 197.109 74.4299ZM200.974 74.3017C200.964 74.3118 200.961 74.3218 200.966 74.3319C200.971 74.3419 200.981 74.347 200.996 74.347H203.014C203.039 74.347 203.061 74.3545 203.081 74.3696C203.096 74.3897 203.103 74.4123 203.103 74.4375V75.1689C203.103 75.1941 203.096 75.2142 203.081 75.2293C203.061 75.2494 203.039 75.2594 203.014 75.2594H199.663C199.638 75.2594 199.618 75.2494 199.603 75.2293C199.584 75.2142 199.574 75.1941 199.574 75.1689V74.4752C199.574 74.4299 199.588 74.3922 199.618 74.3621C199.862 74.1207 200.11 73.8593 200.363 73.5778C200.616 73.2912 200.775 73.1128 200.84 73.0424C200.979 72.8765 201.12 72.7181 201.264 72.5673C201.716 72.0595 201.942 71.6825 201.942 71.4361C201.942 71.2602 201.88 71.1144 201.756 70.9988C201.631 70.8882 201.47 70.8329 201.271 70.8329C201.073 70.8329 200.912 70.8882 200.787 70.9988C200.663 71.1144 200.601 71.2652 200.601 71.4512V71.6398C200.601 71.6649 200.594 71.6875 200.579 71.7076C200.559 71.7227 200.537 71.7302 200.512 71.7302H199.633C199.608 71.7302 199.588 71.7227 199.574 71.7076C199.554 71.6875 199.544 71.6649 199.544 71.6398V71.2853C199.559 71.0139 199.643 70.7725 199.797 70.5614C199.951 70.3553 200.157 70.1969 200.415 70.0863C200.668 69.9757 200.954 69.9204 201.271 69.9204C201.624 69.9204 201.932 69.9858 202.195 70.1165C202.453 70.2522 202.654 70.4332 202.798 70.6594C202.937 70.8857 203.007 71.137 203.007 71.4135C203.007 71.6247 202.954 71.8408 202.85 72.0621C202.746 72.2833 202.59 72.5221 202.381 72.7784C202.227 72.9745 202.061 73.1681 201.882 73.3591C201.703 73.5501 201.438 73.8266 201.085 74.1886L200.974 74.3017ZM207.475 72.9594C207.499 72.9594 207.522 72.967 207.542 72.9821C207.557 73.0022 207.564 73.0248 207.564 73.0499V73.8116C207.564 73.8367 207.557 73.8593 207.542 73.8794C207.522 73.8945 207.499 73.9021 207.475 73.9021H207.154C207.13 73.9021 207.117 73.9146 207.117 73.9398V75.1689C207.117 75.1941 207.11 75.2142 207.095 75.2293C207.075 75.2494 207.053 75.2594 207.028 75.2594H206.157C206.132 75.2594 206.112 75.2494 206.097 75.2293C206.077 75.2142 206.067 75.1941 206.067 75.1689V73.9398C206.067 73.9146 206.055 73.9021 206.03 73.9021H203.744C203.719 73.9021 203.699 73.8945 203.684 73.8794C203.664 73.8593 203.654 73.8367 203.654 73.8116V73.2083C203.654 73.1781 203.662 73.1404 203.677 73.0952L205.017 70.0486C205.037 70.0034 205.072 69.9807 205.121 69.9807H206.052C206.087 69.9807 206.112 69.9908 206.127 70.0109C206.137 70.026 206.134 70.0511 206.119 70.0863L204.876 72.9142C204.871 72.9242 204.871 72.9343 204.876 72.9443C204.881 72.9544 204.888 72.9594 204.898 72.9594H206.03C206.055 72.9594 206.067 72.9469 206.067 72.9217V71.9866C206.067 71.9615 206.077 71.9414 206.097 71.9263C206.112 71.9062 206.132 71.8961 206.157 71.8961H207.028C207.053 71.8961 207.075 71.9062 207.095 71.9263C207.11 71.9414 207.117 71.9615 207.117 71.9866V72.9217C207.117 72.9469 207.13 72.9594 207.154 72.9594H207.475Z" fill="#252530"/>
</g>
<defs>
<clipPath id="clip0_451_11016">
<rect width="72" height="93" fill="white" transform="translate(0.5)"/>
</clipPath>
<clipPath id="clip1_451_11016">
<rect width="72" height="93" fill="white" transform="translate(82.5)"/>
</clipPath>
<clipPath id="clip2_451_11016">
<rect width="70" height="92" fill="white" transform="translate(164.5)"/>
</clipPath>
</defs>
</svg>
