<svg width="212" height="503" viewBox="0 0 212 503" fill="none" id="svg1615658483_4517" xmlns="http://www.w3.org/2000/svg">
<path d="M43.0801 0C44.2621 3.32974 45.3287 8.82439 45.71 15.0312C46.167 22.4724 45.6618 31.1957 43.0557 38.8193C40.2951 46.8943 36.1867 54.7055 32.4336 62.4023C28.6544 70.1526 25.211 77.8299 23.582 85.8564C20.2437 102.306 26.4204 114.508 37.3223 121.132C48.3163 127.812 64.3459 128.948 80.79 122.592C89.181 119.348 98.4134 114.224 108.198 108.711C117.944 103.22 128.214 97.3579 138.553 92.751C159.184 83.5579 180.647 79.1143 199.29 93.0615C204.153 96.6996 206.915 102.166 208.306 107.841C209.697 113.52 209.751 119.537 209.089 124.485C206.902 140.834 196.657 154.176 183.294 164.406C169.927 174.64 153.309 181.867 138.05 185.987C126.691 189.054 113.705 190.435 100.478 191.605C87.2028 192.78 73.6856 193.743 61.0723 195.948C35.8451 200.359 14.8573 209.626 7.23047 234.845C-0.481503 260.345 4.19556 281.583 17.2627 297.008C30.3741 312.485 52.1089 322.314 78.8613 324.539C86.4216 325.168 94.0231 325.331 101.556 324.926C101.769 320.366 102.599 315.893 104.192 311.602C107.861 301.717 114.657 296.017 122.165 293.364C129.622 290.729 137.729 291.112 144.138 293.246C147.345 294.314 150.188 295.842 152.331 297.712C154.467 299.576 155.994 301.863 156.344 304.438C156.699 307.061 155.797 309.712 153.604 312.17C151.436 314.598 147.983 316.88 143.086 318.924C130.815 324.045 117.756 326.784 104.502 327.744C104.557 334.831 106.093 342.187 108.608 349.457C112.972 362.071 120.216 374.261 127.41 384.025C135.163 394.549 143.565 403.181 151.838 411.145C160.08 419.079 168.276 426.425 175.438 434.239C189.639 449.733 199.986 467.285 200.007 496.087C200.565 495.263 201.164 494.376 201.774 493.469C204.282 489.74 206.937 485.741 207.749 484.398C207.806 484.28 207.847 484.176 207.961 483.905C208.075 483.635 208.222 483.31 208.455 482.899C208.864 482.179 209.781 481.927 210.501 482.336C211.221 482.745 211.473 483.661 211.064 484.381C210.905 484.662 210.807 484.876 210.725 485.071C210.655 485.237 210.541 485.531 210.412 485.787L210.387 485.836L210.358 485.884C209.539 487.252 206.786 491.395 204.265 495.144C202.997 497.029 201.775 498.831 200.868 500.16C200.415 500.824 200.038 501.373 199.772 501.756C199.64 501.946 199.532 502.101 199.454 502.21C199.417 502.262 199.379 502.314 199.346 502.357C199.332 502.375 199.302 502.414 199.267 502.455C199.255 502.469 199.206 502.526 199.137 502.589C199.112 502.611 199.013 502.703 198.864 502.787C198.776 502.833 198.532 502.926 198.374 502.962C198.104 502.983 197.474 502.836 197.154 502.63C194.615 500.486 191.93 496.718 189.685 492.817C187.425 488.892 185.504 484.645 184.561 481.421C184.328 480.626 184.784 479.793 185.579 479.561C186.374 479.328 187.207 479.784 187.439 480.579C188.295 483.505 190.101 487.528 192.284 491.321C193.789 493.935 195.425 496.352 196.991 498.194L197 497.483C197.316 468.761 187.274 451.592 173.227 436.266C166.148 428.543 158.106 421.343 149.757 413.306C141.438 405.298 132.896 396.53 124.995 385.806C117.685 375.883 110.266 363.423 105.773 350.438C103.211 343.029 101.584 335.394 101.503 327.934C93.8851 328.332 86.2177 328.162 78.6133 327.529C51.3164 325.259 28.7404 315.197 14.9736 298.946C1.16279 282.643 -3.60641 260.316 4.35938 233.977C12.4961 207.072 35.0083 197.459 60.5557 192.993C73.3298 190.76 87.0205 189.785 100.213 188.617C113.453 187.446 126.195 186.08 137.268 183.091C152.244 179.047 168.483 171.967 181.471 162.024C194.462 152.079 204.071 139.375 206.115 124.088C206.737 119.44 206.679 113.808 205.393 108.556C204.105 103.3 201.62 98.5514 197.493 95.4639C180.235 82.5531 160.188 86.3951 139.774 95.4912C129.591 100.029 119.455 105.812 109.671 111.325C99.9253 116.816 90.5015 122.055 81.8721 125.391C64.7553 132.007 47.7183 130.959 35.7646 123.695C23.7191 116.376 17.0667 102.875 20.6416 85.2598C22.3529 76.8277 25.9503 68.8531 29.7373 61.0869C33.5503 53.2673 37.5345 45.6956 40.2168 37.8496C42.6519 30.7267 43.159 22.4301 42.7158 15.2148C42.2894 8.27285 40.9969 2.5685 39.8594 0H43.0801ZM197.89 499.196C197.934 499.131 197.98 499.063 198.027 498.994L197.698 498.991C197.762 499.06 197.826 499.129 197.89 499.196ZM143.189 296.092C137.341 294.144 129.923 293.805 123.165 296.193C116.458 298.564 110.35 303.633 107.005 312.646C105.57 316.512 104.794 320.566 104.568 324.732C117.451 323.773 130.09 321.097 141.931 316.155C146.6 314.207 149.607 312.143 151.365 310.173C153.097 308.232 153.586 306.428 153.371 304.842C153.15 303.208 152.144 301.53 150.358 299.972C148.579 298.419 146.11 297.064 143.189 296.092Z" fill="#FCB827"></path>
</svg>