<svg width="193" height="447" viewBox="-2 -2 193 447" fill="none" id="svg1239113967_742" xmlns="http://www.w3.org/2000/svg">
<path d="M36.3075 0C38.6917 5.29 41.4458 24.56 36.8419 39.29C31.8714 55.1932 22.0627 70.0198 19.0123 86.46C12.6987 120.487 42.4437 137.808 73.0921 124.85C104.179 111.707 147.207 68.3272 179.993 95.155C188.203 101.873 189.576 115.56 188.404 125.145C184.54 156.746 152.143 177.176 124.531 185.33C83.5615 197.429 18.507 183.08 4.11145 235.145C-10.2058 286.927 21.3645 322.175 70.7233 326.665C90.5377 328.467 110.741 326.497 128.96 318.18C163.905 302.227 108.064 275.018 95.2532 312.77C87.2899 336.238 100.824 365.815 114.069 385.48C128.766 407.3 147.979 424.318 166.664 442.5" stroke="#FCB827" stroke-width="3" stroke-linecap="round"></path>
</svg>